<?xml version="1.0" standalone="yes"?>

<svg version="1.1" viewBox="0.0 0.0 962.0 314.0" fill="none" stroke="none" stroke-linecap="square" stroke-miterlimit="10" xmlns="http://www.w3.org/2000/svg" xmlns:xlink="http://www.w3.org/1999/xlink"><clipPath id="p.0"><path d="m0 0l962.0 0l0 314.0l-962.0 0l0 -314.0z" clip-rule="nonzero"></path></clipPath><g clip-path="url(#p.0)"><path fill="#000000" fill-opacity="0.0" d="m0 0l962.0 0l0 314.0l-962.0 0z" fill-rule="nonzero"></path><path fill="#f3f3f3" fill-opacity="0.651" d="m0 163.28084l467.3071 0l0 147.68504l-467.3071 0z" fill-rule="nonzero"></path><path fill="#999999" d="m12.21875 189.67146l-1.78125 0l2.28125 -9.5q0.875 -0.265625 1.890625 -0.421875q1.015625 -0.171875 1.8125 -0.171875q0.859375 0 1.46875 0.25q0.625 0.234375 1.0 0.640625q0.390625 0.40625 0.5625 0.984375q0.1875 0.578125 0.1875 1.265625q0 0.4375 -0.078125 0.921875q-0.078125 0.484375 -0.1875 0.984375l-1.21875 5.046875l-1.765625 0l1.125 -4.671875q0.125 -0.53125 0.25 -1.078125q0.125 -0.5625 0.125 -1.046875q0 -0.765625 -0.421875 -1.265625q-0.40625 -0.5 -1.546875 -0.5q-0.484375 0 -0.9375 0.0625q-0.453125 0.046875 -0.765625 0.140625l-2.0 8.359375zm10.935852 -5.1875q1.109375 -0.03125 2.015625 -0.140625q0.90625 -0.109375 1.5625 -0.359375q0.671875 -0.265625 1.046875 -0.703125q0.375 -0.4375 0.375 -1.140625q0 -0.15625 -0.078125 -0.34375q-0.0625 -0.203125 -0.21875 -0.359375q-0.15625 -0.15625 -0.453125 -0.265625q-0.28125 -0.109375 -0.703125 -0.109375q-0.65625 0 -1.234375 0.296875q-0.578125 0.28125 -1.046875 0.75q-0.453125 0.453125 -0.78125 1.078125q-0.3125 0.609375 -0.484375 1.296875zm1.8125 5.4375q-0.96875 0 -1.671875 -0.265625q-0.703125 -0.28125 -1.1875 -0.765625q-0.46875 -0.484375 -0.703125 -1.125q-0.21875 -0.65625 -0.21875 -1.375q0 -1.328125 0.390625 -2.5625q0.40625 -1.25 1.140625 -2.1875q0.75 -0.953125 1.8125 -1.515625q1.0625 -0.5625 2.40625 -0.5625q0.78125 0 1.34375 0.203125q0.5625 0.203125 0.90625 0.546875q0.359375 0.328125 0.53125 0.78125q0.171875 0.453125 0.171875 0.921875q0 0.890625 -0.328125 1.515625q-0.328125 0.609375 -0.859375 1.03125q-0.53125 0.421875 -1.25 0.65625q-0.703125 0.21875 -1.484375 0.359375q-0.765625 0.125 -1.5625 0.171875q-0.78125 0.046875 -1.484375 0.078125q-0.015625 0.15625 -0.015625 0.25q0 0.09375 0 0.15625q0 0.4375 0.109375 0.828125q0.109375 0.390625 0.390625 0.6875q0.28125 0.28125 0.78125 0.453125q0.515625 0.171875 1.328125 0.171875q0.359375 0 0.75 -0.0625q0.390625 -0.0625 0.734375 -0.171875q0.359375 -0.109375 0.625 -0.203125q0.28125 -0.109375 0.390625 -0.203125l0.15625 1.5q-0.375 0.203125 -1.21875 0.4375q-0.84375 0.25 -1.984375 0.25zm8.804565 0.015625q-1.421875 0 -2.09375 -0.625q-0.65625 -0.625 -0.65625 -1.828125q0 -0.78125 0.265625 -2.0l2.03125 -8.453125l1.84375 -0.296875l-0.75 3.0625l3.359375 0l-0.359375 1.484375l-3.359375 0l-1.046875 4.359375q-0.21875 0.890625 -0.21875 1.5625q0 0.625 0.328125 0.90625q0.34375 0.265625 1.140625 0.265625q0.5625 0 1.09375 -0.171875q0.53125 -0.1875 0.8125 -0.34375l0.140625 1.515625q-0.296875 0.15625 -0.984375 0.359375q-0.671875 0.203125 -1.546875 0.203125zm1.9135284 1.75l9.5 0l-0.359375 1.5l-9.5 0l0.359375 -1.5zm11.2066345 -2.015625l3.484375 -14.4375l1.84375 -0.3125l-2.125 8.796875q0.625 -0.453125 1.28125 -0.984375q0.671875 -0.546875 1.265625 -1.078125q0.609375 -0.53125 1.109375 -1.015625q0.5 -0.484375 0.828125 -0.84375l2.078125 0q-0.390625 0.484375 -1.015625 1.09375q-0.609375 0.609375 -1.296875 1.234375q-0.6875 0.609375 -1.375 1.1875q-0.6875 0.5625 -1.25 0.96875q0.515625 0.46875 1.03125 1.125q0.53125 0.65625 1.015625 1.390625q0.484375 0.734375 0.875 1.484375q0.40625 0.75 0.671875 1.390625l-1.921875 0q-0.65625 -1.53125 -1.578125 -2.828125q-0.921875 -1.296875 -1.953125 -2.109375l-1.1875 4.9375l-1.78125 0zm12.082779 -5.1875q1.109375 -0.03125 2.015625 -0.140625q0.90625 -0.109375 1.5625 -0.359375q0.671875 -0.265625 1.046875 -0.703125q0.375 -0.4375 0.375 -1.140625q0 -0.15625 -0.078125 -0.34375q-0.0625 -0.203125 -0.21875 -0.359375q-0.15625 -0.15625 -0.453125 -0.265625q-0.28125 -0.109375 -0.703125 -0.109375q-0.65625 0 -1.234375 0.296875q-0.578125 0.28125 -1.046875 0.75q-0.453125 0.453125 -0.78125 1.078125q-0.3125 0.609375 -0.484375 1.296875zm1.8125 5.4375q-0.96875 0 -1.671875 -0.265625q-0.703125 -0.28125 -1.1875 -0.765625q-0.46875 -0.484375 -0.703125 -1.125q-0.21875 -0.65625 -0.21875 -1.375q0 -1.328125 0.390625 -2.5625q0.40625 -1.25 1.140625 -2.1875q0.75 -0.953125 1.8125 -1.515625q1.0625 -0.5625 2.40625 -0.5625q0.78125 0 1.34375 0.203125q0.5625 0.203125 0.90625 0.546875q0.359375 0.328125 0.53125 0.78125q0.171875 0.453125 0.171875 0.921875q0 0.890625 -0.328125 1.515625q-0.328125 0.609375 -0.859375 1.03125q-0.53125 0.421875 -1.25 0.65625q-0.703125 0.21875 -1.484375 0.359375q-0.765625 0.125 -1.5625 0.171875q-0.78125 0.046875 -1.484375 0.078125q-0.015625 0.15625 -0.015625 0.25q0 0.09375 0 0.15625q0 0.4375 0.109375 0.828125q0.109375 0.390625 0.390625 0.6875q0.28125 0.28125 0.78125 0.453125q0.515625 0.171875 1.328125 0.171875q0.359375 0 0.75 -0.0625q0.390625 -0.0625 0.734375 -0.171875q0.359375 -0.109375 0.625 -0.203125q0.28125 -0.109375 0.390625 -0.203125l0.15625 1.5q-0.375 0.203125 -1.21875 0.4375q-0.84375 0.25 -1.984375 0.25zm11.085815 -10.34375q0.21875 0 0.5 0.03125q0.296875 0.015625 0.5625 0.0625q0.28125 0.046875 0.5 0.09375q0.234375 0.046875 0.359375 0.109375l-0.515625 1.53125q-0.390625 -0.15625 -0.890625 -0.21875q-0.484375 -0.078125 -0.9375 -0.078125q-0.40625 0 -0.796875 0.0625q-0.375 0.046875 -0.671875 0.140625l-2.0 8.359375l-1.78125 0l2.28125 -9.5q0.765625 -0.265625 1.640625 -0.421875q0.875 -0.171875 1.75 -0.171875zm3.0494995 10.09375l-1.78125 0l2.28125 -9.5q0.875 -0.265625 1.890625 -0.421875q1.015625 -0.171875 1.8125 -0.171875q0.859375 0 1.46875 0.25q0.625 0.234375 1.0 0.640625q0.390625 0.40625 0.5625 0.984375q0.1875 0.578125 0.1875 1.265625q0 0.4375 -0.078125 0.921875q-0.078125 0.484375 -0.1875 0.984375l-1.21875 5.046875l-1.765625 0l1.125 -4.671875q0.125 -0.53125 0.25 -1.078125q0.125 -0.5625 0.125 -1.046875q0 -0.765625 -0.421875 -1.265625q-0.40625 -0.5 -1.546875 -0.5q-0.484375 0 -0.9375 0.0625q-0.453125 0.046875 -0.765625 0.140625l-2.0 8.359375zm10.935852 -5.1875q1.109375 -0.03125 2.015625 -0.140625q0.90625 -0.109375 1.5625 -0.359375q0.671875 -0.265625 1.046875 -0.703125q0.375 -0.4375 0.375 -1.140625q0 -0.15625 -0.078125 -0.34375q-0.0625 -0.203125 -0.21875 -0.359375q-0.15625 -0.15625 -0.453125 -0.265625q-0.28125 -0.109375 -0.703125 -0.109375q-0.65625 0 -1.234375 0.296875q-0.578125 0.28125 -1.046875 0.75q-0.453125 0.453125 -0.78125 1.078125q-0.3125 0.609375 -0.484375 1.296875zm1.8125 5.4375q-0.96875 0 -1.671875 -0.265625q-0.703125 -0.28125 -1.1875 -0.765625q-0.46875 -0.484375 -0.703125 -1.125q-0.21875 -0.65625 -0.21875 -1.375q0 -1.328125 0.390625 -2.5625q0.40625 -1.25 1.140625 -2.1875q0.75 -0.953125 1.8125 -1.515625q1.0625 -0.5625 2.40625 -0.5625q0.78125 0 1.34375 0.203125q0.5625 0.203125 0.90625 0.546875q0.359375 0.328125 0.53125 0.78125q0.171875 0.453125 0.171875 0.921875q0 0.890625 -0.328125 1.515625q-0.328125 0.609375 -0.859375 1.03125q-0.53125 0.421875 -1.25 0.65625q-0.703125 0.21875 -1.484375 0.359375q-0.765625 0.125 -1.5625 0.171875q-0.78125 0.046875 -1.484375 0.078125q-0.015625 0.15625 -0.015625 0.25q0 0.09375 0 0.15625q0 0.4375 0.109375 0.828125q0.109375 0.390625 0.390625 0.6875q0.28125 0.28125 0.78125 0.453125q0.515625 0.171875 1.328125 0.171875q0.359375 0 0.75 -0.0625q0.390625 -0.0625 0.734375 -0.171875q0.359375 -0.109375 0.625 -0.203125q0.28125 -0.109375 0.390625 -0.203125l0.15625 1.5q-0.375 0.203125 -1.21875 0.4375q-0.84375 0.25 -1.984375 0.25zm8.054565 -4.59375q-0.09375 0.40625 -0.1875 0.8125q-0.09375 0.390625 -0.09375 0.75q0 0.65625 0.3125 1.03125q0.3125 0.375 1.171875 0.484375l-0.390625 1.4375q-0.78125 -0.015625 -1.328125 -0.234375q-0.546875 -0.21875 -0.875 -0.578125q-0.328125 -0.359375 -0.484375 -0.859375q-0.15625 -0.5 -0.15625 -1.078125q0 -0.4375 0.078125 -0.90625q0.078125 -0.484375 0.21875 -1.0l2.390625 -9.953125l1.84375 -0.3125l-2.5 10.40625z" fill-rule="nonzero"></path><path fill="#cccccc" d="m139.12335 195.04855l0 0c0 -10.776077 23.295303 -19.51181 52.03151 -19.51181l0 0c28.73619 0 52.031494 8.735733 52.031494 19.51181l0 0c0 10.776077 -23.295303 19.51181 -52.031494 19.51181l0 0c-28.736206 0 -52.03151 -8.735733 -52.03151 -19.51181z" fill-rule="nonzero"></path><path fill="#000000" d="m173.58769 198.86105l-1.015625 0l1.3125 -5.5q0.5 -0.15625 1.09375 -0.25q0.59375 -0.09375 1.046875 -0.09375q0.5 0 0.859375 0.140625q0.359375 0.140625 0.578125 0.375q0.21875 0.234375 0.3125 0.578125q0.109375 0.328125 0.109375 0.71875q0 0.265625 -0.046875 0.546875q-0.03125 0.265625 -0.109375 0.5625l-0.703125 2.921875l-1.015625 0l0.640625 -2.703125q0.078125 -0.3125 0.140625 -0.625q0.078125 -0.328125 0.078125 -0.609375q0 -0.4375 -0.25 -0.734375q-0.234375 -0.296875 -0.890625 -0.296875q-0.265625 0 -0.53125 0.046875q-0.265625 0.03125 -0.4375 0.078125l-1.171875 4.84375zm7.0435333 0.140625q-0.90625 0 -1.421875 -0.53125q-0.515625 -0.53125 -0.515625 -1.46875q0 -0.640625 0.1875 -1.34375q0.1875 -0.703125 0.578125 -1.296875q0.390625 -0.59375 1.015625 -0.96875q0.640625 -0.390625 1.53125 -0.390625q0.890625 0 1.40625 0.53125q0.515625 0.53125 0.515625 1.46875q0 0.640625 -0.1875 1.34375q-0.171875 0.703125 -0.578125 1.296875q-0.390625 0.59375 -1.015625 0.984375q-0.625 0.375 -1.515625 0.375zm0.171875 -0.859375q0.5 0 0.890625 -0.28125q0.390625 -0.296875 0.65625 -0.734375q0.265625 -0.453125 0.40625 -0.984375q0.140625 -0.546875 0.140625 -1.046875q0 -0.5625 -0.25 -0.890625q-0.234375 -0.34375 -0.828125 -0.34375q-0.484375 0 -0.875 0.296875q-0.390625 0.28125 -0.671875 0.734375q-0.265625 0.4375 -0.40625 0.984375q-0.140625 0.53125 -0.140625 1.03125q0 0.5625 0.234375 0.90625q0.25 0.328125 0.84375 0.328125zm8.195526 -0.421875q0 0.265625 0.046875 0.53125q0.046875 0.25 0.15625 0.546875l-0.90625 0.125q-0.125 -0.234375 -0.1875 -0.578125q-0.234375 0.21875 -0.640625 0.4375q-0.40625 0.21875 -1.0 0.21875q-0.484375 0 -0.84375 -0.140625q-0.34375 -0.15625 -0.578125 -0.421875q-0.234375 -0.28125 -0.34375 -0.65625q-0.109375 -0.390625 -0.109375 -0.828125q0 -0.75 0.25 -1.453125q0.25 -0.703125 0.734375 -1.25q0.484375 -0.546875 1.21875 -0.875q0.75 -0.34375 1.71875 -0.34375q0.125 0 0.25 0.015625q0.125 0 0.25 0.03125l0.609375 -2.578125l1.078125 -0.171875l-1.5625 6.4375q-0.046875 0.25 -0.09375 0.484375q-0.046875 0.21875 -0.046875 0.46875zm-2.328125 0.421875q0.46875 0 0.78125 -0.1875q0.328125 -0.203125 0.578125 -0.453125q0 -0.1875 0.03125 -0.390625q0.03125 -0.203125 0.078125 -0.4375l0.671875 -2.75q-0.109375 -0.03125 -0.234375 -0.03125q-0.109375 0 -0.21875 0q-0.625 0 -1.140625 0.25q-0.5 0.234375 -0.859375 0.640625q-0.359375 0.40625 -0.5625 0.9375q-0.1875 0.53125 -0.1875 1.109375q0 0.265625 0.0625 0.5q0.0625 0.21875 0.171875 0.40625q0.125 0.171875 0.328125 0.296875q0.203125 0.109375 0.5 0.109375zm4.9227753 -2.28125q0.625 -0.03125 1.15625 -0.078125q0.53125 -0.0625 0.90625 -0.203125q0.390625 -0.15625 0.609375 -0.40625q0.21875 -0.265625 0.21875 -0.671875q0 -0.09375 -0.046875 -0.203125q-0.03125 -0.109375 -0.125 -0.203125q-0.09375 -0.09375 -0.265625 -0.15625q-0.15625 -0.0625 -0.40625 -0.0625q-0.375 0 -0.71875 0.171875q-0.328125 0.15625 -0.59375 0.4375q-0.265625 0.265625 -0.453125 0.625q-0.1875 0.34375 -0.28125 0.75zm1.03125 3.140625q-0.546875 0 -0.96875 -0.15625q-0.40625 -0.15625 -0.6875 -0.4375q-0.265625 -0.28125 -0.40625 -0.65625q-0.125 -0.375 -0.125 -0.796875q0 -0.765625 0.234375 -1.484375q0.234375 -0.71875 0.65625 -1.265625q0.4375 -0.546875 1.046875 -0.875q0.625 -0.328125 1.40625 -0.328125q0.453125 0 0.765625 0.125q0.328125 0.109375 0.53125 0.3125q0.203125 0.203125 0.296875 0.46875q0.109375 0.25 0.109375 0.515625q0 0.515625 -0.1875 0.875q-0.1875 0.359375 -0.5 0.609375q-0.3125 0.234375 -0.71875 0.375q-0.40625 0.125 -0.859375 0.203125q-0.4375 0.078125 -0.90625 0.109375q-0.453125 0.015625 -0.859375 0.046875q-0.015625 0.078125 -0.015625 0.140625q0 0.046875 0 0.09375q0 0.25 0.0625 0.484375q0.0625 0.21875 0.21875 0.390625q0.171875 0.15625 0.46875 0.265625q0.296875 0.09375 0.765625 0.09375q0.203125 0 0.421875 -0.03125q0.234375 -0.046875 0.4375 -0.109375q0.203125 -0.0625 0.359375 -0.109375q0.171875 -0.0625 0.234375 -0.125l0.078125 0.875q-0.21875 0.125 -0.703125 0.25q-0.484375 0.140625 -1.15625 0.140625zm9.879364 -0.609375q-0.703125 0 -0.984375 -0.390625q-0.25 0.15625 -0.59375 0.25q-0.34375 0.09375 -0.734375 0.09375q-0.8125 0 -1.3125 -0.46875q-0.5 -0.46875 -0.5 -1.40625q0 -0.625 0.21875 -1.203125q0.21875 -0.59375 0.625 -1.03125q0.40625 -0.453125 0.984375 -0.71875q0.578125 -0.28125 1.328125 -0.28125q0.578125 0 1.0 0.109375q0.421875 0.09375 0.640625 0.1875l-0.796875 3.34375q-0.0625 0.15625 -0.0625 0.3125q0 0.125 0.0625 0.234375q0.078125 0.09375 0.3125 0.09375q0.453125 0 0.78125 -0.265625q0.328125 -0.265625 0.546875 -0.6875q0.234375 -0.4375 0.328125 -0.9375q0.109375 -0.5 0.109375 -0.984375q0 -0.59375 -0.15625 -1.09375q-0.15625 -0.515625 -0.5 -0.875q-0.34375 -0.375 -0.90625 -0.578125q-0.5625 -0.203125 -1.375 -0.203125q-0.953125 0 -1.78125 0.421875q-0.828125 0.40625 -1.4375 1.09375q-0.59375 0.6875 -0.9375 1.59375q-0.34375 0.90625 -0.34375 1.90625q0 0.734375 0.203125 1.265625q0.21875 0.515625 0.609375 0.859375q0.390625 0.34375 0.921875 0.5q0.546875 0.171875 1.1875 0.171875q0.640625 0 1.078125 -0.078125q0.4375 -0.078125 0.546875 -0.125l-0.0625 0.8125q-0.109375 0.03125 -0.296875 0.0625q-0.1875 0.046875 -0.421875 0.078125q-0.234375 0.046875 -0.515625 0.0625q-0.265625 0.03125 -0.515625 0.03125q-0.796875 0 -1.46875 -0.234375q-0.671875 -0.21875 -1.171875 -0.671875q-0.484375 -0.4375 -0.765625 -1.09375q-0.265625 -0.671875 -0.265625 -1.53125q0 -1.109375 0.359375 -2.171875q0.375 -1.078125 1.09375 -1.90625q0.71875 -0.84375 1.75 -1.359375q1.03125 -0.515625 2.375 -0.515625q1.796875 0 2.765625 0.890625q0.96875 0.890625 0.96875 2.625q0 0.515625 -0.125 1.171875q-0.109375 0.65625 -0.4375 1.25q-0.3125 0.578125 -0.875 0.984375q-0.5625 0.40625 -1.453125 0.40625zm-2.15625 -0.875q0.59375 0 1.0 -0.21875q0 -0.1875 0.015625 -0.3125q0.03125 -0.125 0.0625 -0.25l0.625 -2.578125q-0.046875 -0.03125 -0.234375 -0.046875q-0.1875 -0.03125 -0.40625 -0.03125q-0.46875 0 -0.84375 0.1875q-0.375 0.1875 -0.640625 0.515625q-0.265625 0.3125 -0.40625 0.734375q-0.140625 0.421875 -0.140625 0.875q0 0.59375 0.234375 0.859375q0.25 0.265625 0.734375 0.265625zm9.186691 1.40625q-0.046875 -0.125 -0.109375 -0.265625q-0.046875 -0.15625 -0.09375 -0.3125q-0.234375 0.21875 -0.640625 0.4375q-0.40625 0.21875 -1.0 0.21875q-0.484375 0 -0.828125 -0.15625q-0.34375 -0.15625 -0.578125 -0.421875q-0.21875 -0.28125 -0.328125 -0.65625q-0.09375 -0.375 -0.09375 -0.8125q0 -0.75 0.25 -1.453125q0.25 -0.703125 0.734375 -1.25q0.5 -0.546875 1.25 -0.890625q0.75 -0.34375 1.75 -0.34375q0.296875 0 0.6875 0.078125q0.40625 0.0625 0.6875 0.203125l-0.84375 3.46875q-0.0625 0.25 -0.109375 0.484375q-0.03125 0.21875 -0.03125 0.46875q0 0.265625 0.046875 0.53125q0.046875 0.25 0.15625 0.546875l-0.90625 0.125zm-1.640625 -0.78125q0.46875 0 0.796875 -0.203125q0.328125 -0.203125 0.578125 -0.46875q0 -0.1875 0.03125 -0.390625q0.03125 -0.203125 0.078125 -0.40625l0.65625 -2.734375q-0.0625 -0.015625 -0.1875 -0.03125q-0.125 -0.015625 -0.21875 -0.015625q-0.625 0 -1.140625 0.25q-0.5 0.234375 -0.859375 0.640625q-0.359375 0.40625 -0.5625 0.9375q-0.1875 0.53125 -0.1875 1.109375q0 0.234375 0.046875 0.484375q0.046875 0.234375 0.15625 0.421875q0.125 0.171875 0.3125 0.296875q0.203125 0.109375 0.5 0.109375z" fill-rule="nonzero"></path><path fill="#cccccc" d="m347.24933 195.04855l0 0c0 -10.776077 23.295319 -19.51181 52.031525 -19.51181l0 0c28.736176 0 52.031494 8.735733 52.031494 19.51181l0 0c0 10.776077 -23.295319 19.51181 -52.031494 19.51181l0 0c-28.736206 0 -52.031525 -8.735733 -52.031525 -19.51181z" fill-rule="nonzero"></path><path fill="#000000" d="m381.65506 198.86105l-1.015625 0l1.3125 -5.5q0.5 -0.15625 1.09375 -0.25q0.59375 -0.09375 1.046875 -0.09375q0.5 0 0.859375 0.140625q0.359375 0.140625 0.578125 0.375q0.21875 0.234375 0.3125 0.578125q0.109375 0.328125 0.109375 0.71875q0 0.265625 -0.046875 0.546875q-0.03125 0.265625 -0.109375 0.5625l-0.703125 2.921875l-1.015625 0l0.640625 -2.703125q0.078125 -0.3125 0.140625 -0.625q0.078125 -0.328125 0.078125 -0.609375q0 -0.4375 -0.25 -0.734375q-0.234375 -0.296875 -0.890625 -0.296875q-0.265625 0 -0.53125 0.046875q-0.265625 0.03125 -0.4375 0.078125l-1.171875 4.84375zm7.0435486 0.140625q-0.90625 0 -1.421875 -0.53125q-0.515625 -0.53125 -0.515625 -1.46875q0 -0.640625 0.1875 -1.34375q0.1875 -0.703125 0.578125 -1.296875q0.390625 -0.59375 1.015625 -0.96875q0.640625 -0.390625 1.53125 -0.390625q0.890625 0 1.40625 0.53125q0.515625 0.53125 0.515625 1.46875q0 0.640625 -0.1875 1.34375q-0.171875 0.703125 -0.578125 1.296875q-0.390625 0.59375 -1.015625 0.984375q-0.625 0.375 -1.515625 0.375zm0.171875 -0.859375q0.5 0 0.890625 -0.28125q0.390625 -0.296875 0.65625 -0.734375q0.265625 -0.453125 0.40625 -0.984375q0.140625 -0.546875 0.140625 -1.046875q0 -0.5625 -0.25 -0.890625q-0.234375 -0.34375 -0.828125 -0.34375q-0.484375 0 -0.875 0.296875q-0.390625 0.28125 -0.671875 0.734375q-0.265625 0.4375 -0.40625 0.984375q-0.140625 0.53125 -0.140625 1.03125q0 0.5625 0.234375 0.90625q0.25 0.328125 0.84375 0.328125zm8.195526 -0.421875q0 0.265625 0.046875 0.53125q0.046875 0.25 0.15625 0.546875l-0.90625 0.125q-0.125 -0.234375 -0.1875 -0.578125q-0.234375 0.21875 -0.640625 0.4375q-0.40625 0.21875 -1.0 0.21875q-0.484375 0 -0.84375 -0.140625q-0.34375 -0.15625 -0.578125 -0.421875q-0.234375 -0.28125 -0.34375 -0.65625q-0.109375 -0.390625 -0.109375 -0.828125q0 -0.75 0.25 -1.453125q0.25 -0.703125 0.734375 -1.25q0.484375 -0.546875 1.21875 -0.875q0.75 -0.34375 1.71875 -0.34375q0.125 0 0.25 0.015625q0.125 0 0.25 0.03125l0.609375 -2.578125l1.078125 -0.171875l-1.5625 6.4375q-0.046875 0.25 -0.09375 0.484375q-0.046875 0.21875 -0.046875 0.46875zm-2.328125 0.421875q0.46875 0 0.78125 -0.1875q0.328125 -0.203125 0.578125 -0.453125q0 -0.1875 0.03125 -0.390625q0.03125 -0.203125 0.078125 -0.4375l0.671875 -2.75q-0.109375 -0.03125 -0.234375 -0.03125q-0.109375 0 -0.21875 0q-0.625 0 -1.140625 0.25q-0.5 0.234375 -0.859375 0.640625q-0.359375 0.40625 -0.5625 0.9375q-0.1875 0.53125 -0.1875 1.109375q0 0.265625 0.0625 0.5q0.0625 0.21875 0.171875 0.40625q0.125 0.171875 0.328125 0.296875q0.203125 0.109375 0.5 0.109375zm4.92276 -2.28125q0.625 -0.03125 1.15625 -0.078125q0.53125 -0.0625 0.90625 -0.203125q0.390625 -0.15625 0.609375 -0.40625q0.21875 -0.265625 0.21875 -0.671875q0 -0.09375 -0.046875 -0.203125q-0.03125 -0.109375 -0.125 -0.203125q-0.09375 -0.09375 -0.265625 -0.15625q-0.15625 -0.0625 -0.40625 -0.0625q-0.375 0 -0.71875 0.171875q-0.328125 0.15625 -0.59375 0.4375q-0.265625 0.265625 -0.453125 0.625q-0.1875 0.34375 -0.28125 0.75zm1.03125 3.140625q-0.546875 0 -0.96875 -0.15625q-0.40625 -0.15625 -0.6875 -0.4375q-0.265625 -0.28125 -0.40625 -0.65625q-0.125 -0.375 -0.125 -0.796875q0 -0.765625 0.234375 -1.484375q0.234375 -0.71875 0.65625 -1.265625q0.4375 -0.546875 1.046875 -0.875q0.625 -0.328125 1.40625 -0.328125q0.453125 0 0.765625 0.125q0.328125 0.109375 0.53125 0.3125q0.203125 0.203125 0.296875 0.46875q0.109375 0.25 0.109375 0.515625q0 0.515625 -0.1875 0.875q-0.1875 0.359375 -0.5 0.609375q-0.3125 0.234375 -0.71875 0.375q-0.40625 0.125 -0.859375 0.203125q-0.4375 0.078125 -0.90625 0.109375q-0.453125 0.015625 -0.859375 0.046875q-0.015625 0.078125 -0.015625 0.140625q0 0.046875 0 0.09375q0 0.25 0.0625 0.484375q0.0625 0.21875 0.21875 0.390625q0.171875 0.15625 0.46875 0.265625q0.296875 0.09375 0.765625 0.09375q0.203125 0 0.421875 -0.03125q0.234375 -0.046875 0.4375 -0.109375q0.203125 -0.0625 0.359375 -0.109375q0.171875 -0.0625 0.234375 -0.125l0.078125 0.875q-0.21875 0.125 -0.703125 0.25q-0.484375 0.140625 -1.15625 0.140625zm9.879364 -0.609375q-0.703125 0 -0.984375 -0.390625q-0.25 0.15625 -0.59375 0.25q-0.34375 0.09375 -0.734375 0.09375q-0.8125 0 -1.3125 -0.46875q-0.5 -0.46875 -0.5 -1.40625q0 -0.625 0.21875 -1.203125q0.21875 -0.59375 0.625 -1.03125q0.40625 -0.453125 0.984375 -0.71875q0.578125 -0.28125 1.328125 -0.28125q0.578125 0 1.0 0.109375q0.421875 0.09375 0.640625 0.1875l-0.796875 3.34375q-0.0625 0.15625 -0.0625 0.3125q0 0.125 0.0625 0.234375q0.078125 0.09375 0.3125 0.09375q0.453125 0 0.78125 -0.265625q0.328125 -0.265625 0.546875 -0.6875q0.234375 -0.4375 0.328125 -0.9375q0.109375 -0.5 0.109375 -0.984375q0 -0.59375 -0.15625 -1.09375q-0.15625 -0.515625 -0.5 -0.875q-0.34375 -0.375 -0.90625 -0.578125q-0.5625 -0.203125 -1.375 -0.203125q-0.953125 0 -1.78125 0.421875q-0.828125 0.40625 -1.4375 1.09375q-0.59375 0.6875 -0.9375 1.59375q-0.34375 0.90625 -0.34375 1.90625q0 0.734375 0.203125 1.265625q0.21875 0.515625 0.609375 0.859375q0.390625 0.34375 0.921875 0.5q0.546875 0.171875 1.1875 0.171875q0.640625 0 1.078125 -0.078125q0.4375 -0.078125 0.546875 -0.125l-0.0625 0.8125q-0.109375 0.03125 -0.296875 0.0625q-0.1875 0.046875 -0.421875 0.078125q-0.234375 0.046875 -0.515625 0.0625q-0.265625 0.03125 -0.515625 0.03125q-0.796875 0 -1.46875 -0.234375q-0.671875 -0.21875 -1.171875 -0.671875q-0.484375 -0.4375 -0.765625 -1.09375q-0.265625 -0.671875 -0.265625 -1.53125q0 -1.109375 0.359375 -2.171875q0.375 -1.078125 1.09375 -1.90625q0.71875 -0.84375 1.75 -1.359375q1.03125 -0.515625 2.375 -0.515625q1.796875 0 2.765625 0.890625q0.96875 0.890625 0.96875 2.625q0 0.515625 -0.125 1.171875q-0.109375 0.65625 -0.4375 1.25q-0.3125 0.578125 -0.875 0.984375q-0.5625 0.40625 -1.453125 0.40625zm-2.15625 -0.875q0.59375 0 1.0 -0.21875q0 -0.1875 0.015625 -0.3125q0.03125 -0.125 0.0625 -0.25l0.625 -2.578125q-0.046875 -0.03125 -0.234375 -0.046875q-0.1875 -0.03125 -0.40625 -0.03125q-0.46875 0 -0.84375 0.1875q-0.375 0.1875 -0.640625 0.515625q-0.265625 0.3125 -0.40625 0.734375q-0.140625 0.421875 -0.140625 0.875q0 0.59375 0.234375 0.859375q0.25 0.265625 0.734375 0.265625zm7.6085815 -4.140625q0.265625 -0.15625 0.59375 -0.265625q0.328125 -0.109375 0.703125 -0.109375q0.46875 0 0.828125 0.15625q0.359375 0.140625 0.578125 0.421875q0.234375 0.265625 0.34375 0.640625q0.125 0.375 0.125 0.796875q0 0.765625 -0.25 1.484375q-0.234375 0.703125 -0.734375 1.265625q-0.484375 0.546875 -1.234375 0.890625q-0.734375 0.328125 -1.734375 0.328125q-0.171875 0 -0.375 -0.015625q-0.1875 -0.015625 -0.390625 -0.0625q-0.203125 -0.046875 -0.40625 -0.109375q-0.1875 -0.0625 -0.328125 -0.15625l1.953125 -8.140625l1.0625 -0.171875l-0.734375 3.046875zm1.046875 0.484375q-0.328125 0 -0.65625 0.125q-0.328125 0.109375 -0.609375 0.328125l-0.890625 3.71875q0.109375 0.03125 0.25 0.046875q0.140625 0.015625 0.28125 0.015625q0.625 0 1.125 -0.234375q0.515625 -0.25 0.859375 -0.65625q0.359375 -0.421875 0.546875 -0.953125q0.203125 -0.53125 0.203125 -1.125q0 -0.234375 -0.0625 -0.46875q-0.046875 -0.234375 -0.171875 -0.40625q-0.125 -0.171875 -0.34375 -0.28125q-0.203125 -0.109375 -0.53125 -0.109375z" fill-rule="nonzero"></path><path fill="#cccccc" d="m243.18636 273.0971l0 0c0 -10.776062 23.295303 -19.51181 52.03148 -19.51181l0 0c28.736206 0 52.031494 8.735748 52.031494 19.51181l0 0c0 10.776093 -23.295288 19.51181 -52.031494 19.51181l0 0c-28.736176 0 -52.03148 -8.735718 -52.03148 -19.51181z" fill-rule="nonzero"></path><path fill="#000000" d="m278.1462 276.9096l-1.015625 0l1.3125 -5.5q0.5 -0.15625 1.09375 -0.25q0.59375 -0.09375 1.046875 -0.09375q0.5 0 0.859375 0.140625q0.359375 0.140625 0.578125 0.375q0.21875 0.234375 0.3125 0.578125q0.109375 0.328125 0.109375 0.71875q0 0.265625 -0.046875 0.546875q-0.03125 0.265625 -0.109375 0.5625l-0.703125 2.921875l-1.015625 0l0.640625 -2.703125q0.078125 -0.3125 0.140625 -0.625q0.078125 -0.328125 0.078125 -0.609375q0 -0.4375 -0.25 -0.734375q-0.234375 -0.296875 -0.890625 -0.296875q-0.265625 0 -0.53125 0.046875q-0.265625 0.03125 -0.4375 0.078125l-1.171875 4.84375zm7.043518 0.140625q-0.90625 0 -1.421875 -0.53125q-0.515625 -0.53125 -0.515625 -1.46875q0 -0.640625 0.1875 -1.34375q0.1875 -0.703125 0.578125 -1.296875q0.390625 -0.59375 1.015625 -0.96875q0.640625 -0.390625 1.53125 -0.390625q0.890625 0 1.40625 0.53125q0.515625 0.53125 0.515625 1.46875q0 0.640625 -0.1875 1.34375q-0.171875 0.703125 -0.578125 1.296875q-0.390625 0.59375 -1.015625 0.984375q-0.625 0.375 -1.515625 0.375zm0.171875 -0.859375q0.5 0 0.890625 -0.28125q0.390625 -0.296875 0.65625 -0.734375q0.265625 -0.453125 0.40625 -0.984375q0.140625 -0.546875 0.140625 -1.046875q0 -0.5625 -0.25 -0.890625q-0.234375 -0.34375 -0.828125 -0.34375q-0.484375 0 -0.875 0.296875q-0.390625 0.28125 -0.671875 0.734375q-0.265625 0.4375 -0.40625 0.984375q-0.140625 0.53125 -0.140625 1.03125q0 0.5625 0.234375 0.90625q0.25 0.328125 0.84375 0.328125zm8.195526 -0.421875q0 0.265625 0.046875 0.53125q0.046875 0.25 0.15625 0.546875l-0.90625 0.125q-0.125 -0.234375 -0.1875 -0.578125q-0.234375 0.21875 -0.640625 0.4375q-0.40625 0.21875 -1.0 0.21875q-0.484375 0 -0.84375 -0.140625q-0.34375 -0.15625 -0.578125 -0.421875q-0.234375 -0.28125 -0.34375 -0.65625q-0.109375 -0.390625 -0.109375 -0.828125q0 -0.75 0.25 -1.453125q0.25 -0.703125 0.734375 -1.25q0.484375 -0.546875 1.21875 -0.875q0.75 -0.34375 1.71875 -0.34375q0.125 0 0.25 0.015625q0.125 0 0.25 0.03125l0.609375 -2.578125l1.078125 -0.171875l-1.5625 6.4375q-0.046875 0.25 -0.09375 0.484375q-0.046875 0.21875 -0.046875 0.46875zm-2.328125 0.421875q0.46875 0 0.78125 -0.1875q0.328125 -0.203125 0.578125 -0.453125q0 -0.1875 0.03125 -0.390625q0.03125 -0.203125 0.078125 -0.4375l0.671875 -2.75q-0.109375 -0.03125 -0.234375 -0.03125q-0.109375 0 -0.21875 0q-0.625 0 -1.140625 0.25q-0.5 0.234375 -0.859375 0.640625q-0.359375 0.40625 -0.5625 0.9375q-0.1875 0.53125 -0.1875 1.109375q0 0.265625 0.0625 0.5q0.0625 0.21875 0.171875 0.40625q0.125 0.171875 0.328125 0.296875q0.203125 0.109375 0.5 0.109375zm4.9227905 -2.28125q0.625 -0.03125 1.15625 -0.078125q0.53125 -0.0625 0.90625 -0.203125q0.390625 -0.15625 0.609375 -0.40625q0.21875 -0.265625 0.21875 -0.671875q0 -0.09375 -0.046875 -0.203125q-0.03125 -0.109375 -0.125 -0.203125q-0.09375 -0.09375 -0.265625 -0.15625q-0.15625 -0.0625 -0.40625 -0.0625q-0.375 0 -0.71875 0.171875q-0.328125 0.15625 -0.59375 0.4375q-0.265625 0.265625 -0.453125 0.625q-0.1875 0.34375 -0.28125 0.75zm1.03125 3.140625q-0.546875 0 -0.96875 -0.15625q-0.40625 -0.15625 -0.6875 -0.4375q-0.265625 -0.28125 -0.40625 -0.65625q-0.125 -0.375 -0.125 -0.796875q0 -0.765625 0.234375 -1.484375q0.234375 -0.71875 0.65625 -1.265625q0.4375 -0.546875 1.046875 -0.875q0.625 -0.328125 1.40625 -0.328125q0.453125 0 0.765625 0.125q0.328125 0.109375 0.53125 0.3125q0.203125 0.203125 0.296875 0.46875q0.109375 0.25 0.109375 0.515625q0 0.515625 -0.1875 0.875q-0.1875 0.359375 -0.5 0.609375q-0.3125 0.234375 -0.71875 0.375q-0.40625 0.125 -0.859375 0.203125q-0.4375 0.078125 -0.90625 0.109375q-0.453125 0.015625 -0.859375 0.046875q-0.015625 0.078125 -0.015625 0.140625q0 0.046875 0 0.09375q0 0.25 0.0625 0.484375q0.0625 0.21875 0.21875 0.390625q0.171875 0.15625 0.46875 0.265625q0.296875 0.09375 0.765625 0.09375q0.203125 0 0.421875 -0.03125q0.234375 -0.046875 0.4375 -0.109375q0.203125 -0.0625 0.359375 -0.109375q0.171875 -0.0625 0.234375 -0.125l0.078125 0.875q-0.21875 0.125 -0.703125 0.25q-0.484375 0.140625 -1.15625 0.140625zm9.879364 -0.609375q-0.703125 0 -0.984375 -0.390625q-0.25 0.15625 -0.59375 0.25q-0.34375 0.09375 -0.734375 0.09375q-0.8125 0 -1.3125 -0.46875q-0.5 -0.46875 -0.5 -1.40625q0 -0.625 0.21875 -1.203125q0.21875 -0.59375 0.625 -1.03125q0.40625 -0.453125 0.984375 -0.71875q0.578125 -0.28125 1.328125 -0.28125q0.578125 0 1.0 0.109375q0.421875 0.09375 0.640625 0.1875l-0.796875 3.34375q-0.0625 0.15625 -0.0625 0.3125q0 0.125 0.0625 0.234375q0.078125 0.09375 0.3125 0.09375q0.453125 0 0.78125 -0.265625q0.328125 -0.265625 0.546875 -0.6875q0.234375 -0.4375 0.328125 -0.9375q0.109375 -0.5 0.109375 -0.984375q0 -0.59375 -0.15625 -1.09375q-0.15625 -0.515625 -0.5 -0.875q-0.34375 -0.375 -0.90625 -0.578125q-0.5625 -0.203125 -1.375 -0.203125q-0.953125 0 -1.78125 0.421875q-0.828125 0.40625 -1.4375 1.09375q-0.59375 0.6875 -0.9375 1.59375q-0.34375 0.90625 -0.34375 1.90625q0 0.734375 0.203125 1.265625q0.21875 0.515625 0.609375 0.859375q0.390625 0.34375 0.921875 0.5q0.546875 0.171875 1.1875 0.171875q0.640625 0 1.078125 -0.078125q0.4375 -0.078125 0.546875 -0.125l-0.0625 0.8125q-0.109375 0.03125 -0.296875 0.0625q-0.1875 0.046875 -0.421875 0.078125q-0.234375 0.046875 -0.515625 0.0625q-0.265625 0.03125 -0.515625 0.03125q-0.796875 0 -1.46875 -0.234375q-0.671875 -0.21875 -1.171875 -0.671875q-0.484375 -0.4375 -0.765625 -1.09375q-0.265625 -0.671875 -0.265625 -1.53125q0 -1.109375 0.359375 -2.171875q0.375 -1.078125 1.09375 -1.90625q0.71875 -0.84375 1.75 -1.359375q1.03125 -0.515625 2.375 -0.515625q1.796875 0 2.765625 0.890625q0.96875 0.890625 0.96875 2.625q0 0.515625 -0.125 1.171875q-0.109375 0.65625 -0.4375 1.25q-0.3125 0.578125 -0.875 0.984375q-0.5625 0.40625 -1.453125 0.40625zm-2.15625 -0.875q0.59375 0 1.0 -0.21875q0 -0.1875 0.015625 -0.3125q0.03125 -0.125 0.0625 -0.25l0.625 -2.578125q-0.046875 -0.03125 -0.234375 -0.046875q-0.1875 -0.03125 -0.40625 -0.03125q-0.46875 0 -0.84375 0.1875q-0.375 0.1875 -0.640625 0.515625q-0.265625 0.3125 -0.40625 0.734375q-0.140625 0.421875 -0.140625 0.875q0 0.59375 0.234375 0.859375q0.25 0.265625 0.734375 0.265625zm5.530426 -0.703125q0 -0.75 0.21875 -1.4375q0.234375 -0.703125 0.671875 -1.21875q0.453125 -0.53125 1.078125 -0.84375q0.640625 -0.3125 1.46875 -0.3125q0.359375 0 0.6875 0.046875q0.34375 0.046875 0.640625 0.1875l-0.390625 0.859375q-0.171875 -0.09375 -0.421875 -0.140625q-0.234375 -0.0625 -0.609375 -0.0625q-0.53125 0 -0.96875 0.234375q-0.421875 0.234375 -0.734375 0.625q-0.296875 0.390625 -0.453125 0.90625q-0.15625 0.515625 -0.15625 1.0625q0 0.28125 0.0625 0.53125q0.0625 0.25 0.203125 0.453125q0.15625 0.1875 0.40625 0.296875q0.265625 0.109375 0.671875 0.109375q0.1875 0 0.40625 -0.03125q0.234375 -0.046875 0.421875 -0.09375q0.1875 -0.0625 0.328125 -0.125q0.15625 -0.0625 0.21875 -0.109375l0.078125 0.875q-0.203125 0.125 -0.640625 0.25q-0.4375 0.125 -1.0 0.125q-0.53125 0 -0.9375 -0.15625q-0.40625 -0.15625 -0.6875 -0.453125q-0.265625 -0.296875 -0.421875 -0.6875q-0.140625 -0.40625 -0.140625 -0.890625z" fill-rule="nonzero"></path><path fill="#cccccc" d="m35.060368 273.0971l0 0c0 -10.776062 23.295292 -19.51181 52.031498 -19.51181l0 0c28.736198 0 52.031487 8.735748 52.031487 19.51181l0 0c0 10.776093 -23.295288 19.51181 -52.031487 19.51181l0 0c-28.736206 0 -52.031498 -8.735718 -52.031498 -19.51181z" fill-rule="nonzero"></path><path fill="#000000" d="m69.50872 276.9096l-1.015625 0l1.3125 -5.5q0.5 -0.15625 1.09375 -0.25q0.59375 -0.09375 1.046875 -0.09375q0.5 0 0.859375 0.140625q0.359375 0.140625 0.578125 0.375q0.21875 0.234375 0.3125 0.578125q0.109375 0.328125 0.109375 0.71875q0 0.265625 -0.046875 0.546875q-0.03125 0.265625 -0.109375 0.5625l-0.703125 2.921875l-1.015625 0l0.640625 -2.703125q0.078125 -0.3125 0.140625 -0.625q0.078125 -0.328125 0.078125 -0.609375q0 -0.4375 -0.25 -0.734375q-0.234375 -0.296875 -0.890625 -0.296875q-0.265625 0 -0.53125 0.046875q-0.265625 0.03125 -0.4375 0.078125l-1.171875 4.84375zm7.0435333 0.140625q-0.90625 0 -1.421875 -0.53125q-0.515625 -0.53125 -0.515625 -1.46875q0 -0.640625 0.1875 -1.34375q0.1875 -0.703125 0.578125 -1.296875q0.390625 -0.59375 1.015625 -0.96875q0.640625 -0.390625 1.53125 -0.390625q0.890625 0 1.40625 0.53125q0.515625 0.53125 0.515625 1.46875q0 0.640625 -0.1875 1.34375q-0.171875 0.703125 -0.578125 1.296875q-0.390625 0.59375 -1.015625 0.984375q-0.625 0.375 -1.515625 0.375zm0.171875 -0.859375q0.5 0 0.890625 -0.28125q0.390625 -0.296875 0.65625 -0.734375q0.265625 -0.453125 0.40625 -0.984375q0.140625 -0.546875 0.140625 -1.046875q0 -0.5625 -0.25 -0.890625q-0.234375 -0.34375 -0.828125 -0.34375q-0.484375 0 -0.875 0.296875q-0.390625 0.28125 -0.671875 0.734375q-0.265625 0.4375 -0.40625 0.984375q-0.140625 0.53125 -0.140625 1.03125q0 0.5625 0.234375 0.90625q0.25 0.328125 0.84375 0.328125zm8.195526 -0.421875q0 0.265625 0.046875 0.53125q0.046875 0.25 0.15625 0.546875l-0.90625 0.125q-0.125 -0.234375 -0.1875 -0.578125q-0.234375 0.21875 -0.640625 0.4375q-0.40625 0.21875 -1.0 0.21875q-0.484375 0 -0.84375 -0.140625q-0.34375 -0.15625 -0.578125 -0.421875q-0.234375 -0.28125 -0.34375 -0.65625q-0.109375 -0.390625 -0.109375 -0.828125q0 -0.75 0.25 -1.453125q0.25 -0.703125 0.734375 -1.25q0.484375 -0.546875 1.21875 -0.875q0.75 -0.34375 1.71875 -0.34375q0.125 0 0.25 0.015625q0.125 0 0.25 0.03125l0.609375 -2.578125l1.078125 -0.171875l-1.5625 6.4375q-0.046875 0.25 -0.09375 0.484375q-0.046875 0.21875 -0.046875 0.46875zm-2.328125 0.421875q0.46875 0 0.78125 -0.1875q0.328125 -0.203125 0.578125 -0.453125q0 -0.1875 0.03125 -0.390625q0.03125 -0.203125 0.078125 -0.4375l0.671875 -2.75q-0.109375 -0.03125 -0.234375 -0.03125q-0.109375 0 -0.21875 0q-0.625 0 -1.140625 0.25q-0.5 0.234375 -0.859375 0.640625q-0.359375 0.40625 -0.5625 0.9375q-0.1875 0.53125 -0.1875 1.109375q0 0.265625 0.0625 0.5q0.0625 0.21875 0.171875 0.40625q0.125 0.171875 0.328125 0.296875q0.203125 0.109375 0.5 0.109375zm4.9227753 -2.28125q0.625 -0.03125 1.15625 -0.078125q0.53125 -0.0625 0.90625 -0.203125q0.390625 -0.15625 0.609375 -0.40625q0.21875 -0.265625 0.21875 -0.671875q0 -0.09375 -0.046875 -0.203125q-0.03125 -0.109375 -0.125 -0.203125q-0.09375 -0.09375 -0.265625 -0.15625q-0.15625 -0.0625 -0.40625 -0.0625q-0.375 0 -0.71875 0.171875q-0.328125 0.15625 -0.59375 0.4375q-0.265625 0.265625 -0.453125 0.625q-0.1875 0.34375 -0.28125 0.75zm1.03125 3.140625q-0.546875 0 -0.96875 -0.15625q-0.40625 -0.15625 -0.6875 -0.4375q-0.265625 -0.28125 -0.40625 -0.65625q-0.125 -0.375 -0.125 -0.796875q0 -0.765625 0.234375 -1.484375q0.234375 -0.71875 0.65625 -1.265625q0.4375 -0.546875 1.046875 -0.875q0.625 -0.328125 1.40625 -0.328125q0.453125 0 0.765625 0.125q0.328125 0.109375 0.53125 0.3125q0.203125 0.203125 0.296875 0.46875q0.109375 0.25 0.109375 0.515625q0 0.515625 -0.1875 0.875q-0.1875 0.359375 -0.5 0.609375q-0.3125 0.234375 -0.71875 0.375q-0.40625 0.125 -0.859375 0.203125q-0.4375 0.078125 -0.90625 0.109375q-0.453125 0.015625 -0.859375 0.046875q-0.015625 0.078125 -0.015625 0.140625q0 0.046875 0 0.09375q0 0.25 0.0625 0.484375q0.0625 0.21875 0.21875 0.390625q0.171875 0.15625 0.46875 0.265625q0.296875 0.09375 0.765625 0.09375q0.203125 0 0.421875 -0.03125q0.234375 -0.046875 0.4375 -0.109375q0.203125 -0.0625 0.359375 -0.109375q0.171875 -0.0625 0.234375 -0.125l0.078125 0.875q-0.21875 0.125 -0.703125 0.25q-0.484375 0.140625 -1.15625 0.140625zm9.879364 -0.609375q-0.703125 0 -0.984375 -0.390625q-0.25 0.15625 -0.59375 0.25q-0.34375 0.09375 -0.734375 0.09375q-0.8125 0 -1.3125 -0.46875q-0.5 -0.46875 -0.5 -1.40625q0 -0.625 0.21875 -1.203125q0.21875 -0.59375 0.625 -1.03125q0.40625 -0.453125 0.984375 -0.71875q0.578125 -0.28125 1.328125 -0.28125q0.578125 0 1.0 0.109375q0.421875 0.09375 0.640625 0.1875l-0.796875 3.34375q-0.0625 0.15625 -0.0625 0.3125q0 0.125 0.0625 0.234375q0.078125 0.09375 0.3125 0.09375q0.453125 0 0.78125 -0.265625q0.328125 -0.265625 0.546875 -0.6875q0.234375 -0.4375 0.328125 -0.9375q0.109375 -0.5 0.109375 -0.984375q0 -0.59375 -0.15625 -1.09375q-0.15625 -0.515625 -0.5 -0.875q-0.34375 -0.375 -0.90625 -0.578125q-0.5625 -0.203125 -1.375 -0.203125q-0.953125 0 -1.78125 0.421875q-0.828125 0.40625 -1.4375 1.09375q-0.59375 0.6875 -0.9375 1.59375q-0.34375 0.90625 -0.34375 1.90625q0 0.734375 0.203125 1.265625q0.21875 0.515625 0.609375 0.859375q0.390625 0.34375 0.921875 0.5q0.546875 0.171875 1.1875 0.171875q0.640625 0 1.078125 -0.078125q0.4375 -0.078125 0.546875 -0.125l-0.0625 0.8125q-0.109375 0.03125 -0.296875 0.0625q-0.1875 0.046875 -0.421875 0.078125q-0.234375 0.046875 -0.515625 0.0625q-0.265625 0.03125 -0.515625 0.03125q-0.796875 0 -1.46875 -0.234375q-0.671875 -0.21875 -1.171875 -0.671875q-0.484375 -0.4375 -0.765625 -1.09375q-0.265625 -0.671875 -0.265625 -1.53125q0 -1.109375 0.359375 -2.171875q0.375 -1.078125 1.09375 -1.90625q0.71875 -0.84375 1.75 -1.359375q1.03125 -0.515625 2.375 -0.515625q1.796875 0 2.765625 0.890625q0.96875 0.890625 0.96875 2.625q0 0.515625 -0.125 1.171875q-0.109375 0.65625 -0.4375 1.25q-0.3125 0.578125 -0.875 0.984375q-0.5625 0.40625 -1.453125 0.40625zm-2.15625 -0.875q0.59375 0 1.0 -0.21875q0 -0.1875 0.015625 -0.3125q0.03125 -0.125 0.0625 -0.25l0.625 -2.578125q-0.046875 -0.03125 -0.234375 -0.046875q-0.1875 -0.03125 -0.40625 -0.03125q-0.46875 0 -0.84375 0.1875q-0.375 0.1875 -0.640625 0.515625q-0.265625 0.3125 -0.40625 0.734375q-0.140625 0.421875 -0.140625 0.875q0 0.59375 0.234375 0.859375q0.25 0.265625 0.734375 0.265625zm9.921066 0.203125q0 0.265625 0.046875 0.53125q0.046875 0.25 0.15625 0.546875l-0.90625 0.125q-0.125 -0.234375 -0.1875 -0.578125q-0.234375 0.21875 -0.640625 0.4375q-0.40625 0.21875 -1.0 0.21875q-0.484375 0 -0.84375 -0.140625q-0.34375 -0.15625 -0.578125 -0.421875q-0.234375 -0.28125 -0.34375 -0.65625q-0.109375 -0.390625 -0.109375 -0.828125q0 -0.75 0.25 -1.453125q0.25 -0.703125 0.734375 -1.25q0.484375 -0.546875 1.21875 -0.875q0.75 -0.34375 1.71875 -0.34375q0.125 0 0.25 0.015625q0.125 0 0.25 0.03125l0.609375 -2.578125l1.078125 -0.171875l-1.5625 6.4375q-0.046875 0.25 -0.09375 0.484375q-0.046875 0.21875 -0.046875 0.46875zm-2.328125 0.421875q0.46875 0 0.78125 -0.1875q0.328125 -0.203125 0.578125 -0.453125q0 -0.1875 0.03125 -0.390625q0.03125 -0.203125 0.078125 -0.4375l0.671875 -2.75q-0.109375 -0.03125 -0.234375 -0.03125q-0.109375 0 -0.21875 0q-0.625 0 -1.140625 0.25q-0.5 0.234375 -0.859375 0.640625q-0.359375 0.40625 -0.5625 0.9375q-0.1875 0.53125 -0.1875 1.109375q0 0.265625 0.0625 0.5q0.0625 0.21875 0.171875 0.40625q0.125 0.171875 0.328125 0.296875q0.203125 0.109375 0.5 0.109375z" fill-rule="nonzero"></path><path fill="#000000" fill-opacity="0.0" d="m87.091866 253.5853l52.031487 -58.536743" fill-rule="nonzero"></path><path stroke="#000000" stroke-width="2.0" stroke-linejoin="round" stroke-linecap="butt" d="m87.091866 253.5853l52.031487 -58.536743" fill-rule="nonzero"></path><path fill="#000000" fill-opacity="0.0" d="m243.18636 195.04855l104.06297 0" fill-rule="nonzero"></path><path stroke="#000000" stroke-width="2.0" stroke-linejoin="round" stroke-linecap="butt" d="m243.18636 195.04855l104.06297 0" fill-rule="nonzero"></path><path fill="#000000" fill-opacity="0.0" d="m347.24933 273.0971l52.031525 -58.536743" fill-rule="nonzero"></path><path stroke="#000000" stroke-width="2.0" stroke-linejoin="round" stroke-linecap="butt" d="m347.24933 273.0971l52.031525 -58.536743" fill-rule="nonzero"></path><path fill="#000000" fill-opacity="0.0" d="m139.12335 273.0971l104.063 0" fill-rule="nonzero"></path><path stroke="#000000" stroke-width="2.0" stroke-linejoin="round" stroke-linecap="butt" d="m139.12335 273.0971l104.063 0" fill-rule="nonzero"></path><path fill="#000000" fill-opacity="0.0" d="m123.88368 259.30017l238.60533 -50.45468" fill-rule="nonzero"></path><path stroke="#000000" stroke-width="2.0" stroke-linejoin="round" stroke-linecap="butt" d="m123.88368 259.30017l238.60533 -50.45468" fill-rule="nonzero"></path><path fill="#000000" fill-opacity="0.0" d="m227.94667 208.84549l30.479355 50.45468" fill-rule="nonzero"></path><path stroke="#000000" stroke-width="2.0" stroke-linejoin="round" stroke-linecap="butt" d="m227.94667 208.84549l30.479355 50.45468" fill-rule="nonzero"></path><path fill="#f3f3f3" fill-opacity="0.651" d="m0 0l467.3071 0l0 147.68504l-467.3071 0z" fill-rule="nonzero"></path><path fill="#999999" d="m14.484375 16.90625q0.4375 -0.265625 1.0 -0.453125q0.578125 -0.1875 1.234375 -0.1875q0.8125 0 1.421875 0.265625q0.625 0.265625 1.015625 0.734375q0.40625 0.46875 0.609375 1.109375q0.203125 0.640625 0.203125 1.390625q0 1.3125 -0.421875 2.53125q-0.421875 1.21875 -1.28125 2.1875q-0.84375 0.953125 -2.125 1.53125q-1.28125 0.578125 -3.015625 0.578125q-0.28125 0 -0.625 -0.03125q-0.34375 -0.015625 -0.703125 -0.09375q-0.34375 -0.078125 -0.6875 -0.1875q-0.328125 -0.125 -0.578125 -0.265625l3.375 -14.0625l1.84375 -0.3125l-1.265625 5.265625zm1.796875 0.859375q-0.578125 0 -1.140625 0.203125q-0.546875 0.1875 -1.046875 0.5625l-1.546875 6.4375q0.203125 0.03125 0.4375 0.078125q0.25 0.03125 0.5 0.03125q1.078125 0 1.953125 -0.421875q0.875 -0.4375 1.484375 -1.140625q0.609375 -0.71875 0.9375 -1.640625q0.34375 -0.921875 0.34375 -1.921875q0 -0.421875 -0.09375 -0.8125q-0.078125 -0.40625 -0.296875 -0.703125q-0.21875 -0.3125 -0.59375 -0.484375q-0.375 -0.1875 -0.9375 -0.1875zm8.291718 8.875q-1.546875 0 -2.4375 -0.921875q-0.875 -0.921875 -0.875 -2.546875q0 -1.09375 0.3125 -2.3125q0.3125 -1.21875 0.984375 -2.234375q0.6875 -1.03125 1.765625 -1.6875q1.09375 -0.671875 2.625 -0.671875q1.5625 0 2.4375 0.921875q0.890625 0.921875 0.890625 2.53125q0 1.109375 -0.3125 2.328125q-0.3125 1.203125 -1.0 2.234375q-0.671875 1.03125 -1.765625 1.703125q-1.078125 0.65625 -2.625 0.65625zm0.3125 -1.5q0.859375 0 1.53125 -0.484375q0.671875 -0.5 1.125 -1.265625q0.46875 -0.78125 0.71875 -1.703125q0.25 -0.9375 0.25 -1.8125q0 -0.96875 -0.421875 -1.53125q-0.40625 -0.578125 -1.4375 -0.578125q-0.859375 0 -1.53125 0.5q-0.671875 0.484375 -1.140625 1.265625q-0.46875 0.765625 -0.71875 1.703125q-0.234375 0.921875 -0.234375 1.796875q0 0.96875 0.40625 1.546875q0.421875 0.5625 1.453125 0.5625zm10.041718 1.5q-1.546875 0 -2.4375 -0.921875q-0.875 -0.921875 -0.875 -2.546875q0 -1.09375 0.3125 -2.3125q0.3125 -1.21875 0.984375 -2.234375q0.6875 -1.03125 1.765625 -1.6875q1.09375 -0.671875 2.625 -0.671875q1.5625 0 2.4375 0.921875q0.890625 0.921875 0.890625 2.53125q0 1.109375 -0.3125 2.328125q-0.3125 1.203125 -1.0 2.234375q-0.671875 1.03125 -1.765625 1.703125q-1.078125 0.65625 -2.625 0.65625zm0.3125 -1.5q0.859375 0 1.53125 -0.484375q0.671875 -0.5 1.125 -1.265625q0.46875 -0.78125 0.71875 -1.703125q0.25 -0.9375 0.25 -1.8125q0 -0.96875 -0.421875 -1.53125q-0.40625 -0.578125 -1.4375 -0.578125q-0.859375 0 -1.53125 0.5q-0.671875 0.484375 -1.140625 1.265625q-0.46875 0.765625 -0.71875 1.703125q-0.234375 0.921875 -0.234375 1.796875q0 0.96875 0.40625 1.546875q0.421875 0.5625 1.453125 0.5625zm9.651093 1.515625q-1.421875 0 -2.09375 -0.625q-0.65625 -0.625 -0.65625 -1.828125q0 -0.78125 0.265625 -2.0l2.03125 -8.453125l1.84375 -0.296875l-0.75 3.0625l3.359375 0l-0.359375 1.484375l-3.359375 0l-1.046875 4.359375q-0.21875 0.890625 -0.21875 1.5625q0 0.625 0.328125 0.90625q0.34375 0.265625 1.140625 0.265625q0.5625 0 1.09375 -0.171875q0.53125 -0.1875 0.8125 -0.34375l0.140625 1.515625q-0.296875 0.15625 -0.984375 0.359375q-0.671875 0.203125 -1.546875 0.203125zm6.3354034 -1.5q0.40625 0 0.8125 -0.078125q0.40625 -0.078125 0.71875 -0.25q0.3125 -0.171875 0.515625 -0.453125q0.203125 -0.296875 0.203125 -0.734375q0 -0.296875 -0.09375 -0.515625q-0.09375 -0.21875 -0.3125 -0.40625q-0.203125 -0.1875 -0.515625 -0.359375q-0.3125 -0.1875 -0.75 -0.421875q-0.4375 -0.203125 -0.796875 -0.40625q-0.359375 -0.21875 -0.640625 -0.5q-0.265625 -0.28125 -0.421875 -0.671875q-0.15625 -0.390625 -0.15625 -0.9375q0 -1.421875 1.015625 -2.28125q1.03125 -0.875 3.0 -0.875q0.90625 0 1.59375 0.1875q0.703125 0.171875 0.96875 0.328125l-0.671875 1.4375q-0.265625 -0.15625 -0.859375 -0.3125q-0.578125 -0.171875 -1.296875 -0.171875q-0.359375 0 -0.734375 0.078125q-0.359375 0.0625 -0.65625 0.25q-0.28125 0.171875 -0.46875 0.46875q-0.171875 0.296875 -0.171875 0.71875q0 0.515625 0.390625 0.84375q0.40625 0.328125 1.203125 0.6875q0.484375 0.234375 0.875 0.46875q0.390625 0.234375 0.65625 0.53125q0.28125 0.296875 0.421875 0.703125q0.15625 0.390625 0.15625 0.9375q0 0.796875 -0.3125 1.40625q-0.296875 0.609375 -0.84375 1.015625q-0.546875 0.390625 -1.28125 0.59375q-0.734375 0.203125 -1.609375 0.203125q-0.65625 0 -1.1875 -0.09375q-0.515625 -0.078125 -0.90625 -0.1875q-0.375 -0.125 -0.640625 -0.25q-0.25 -0.125 -0.390625 -0.1875l0.6875 -1.453125q0.125 0.078125 0.359375 0.203125q0.25 0.109375 0.578125 0.21875q0.328125 0.109375 0.734375 0.1875q0.40625 0.078125 0.828125 0.078125zm8.608246 1.5q-1.421875 0 -2.09375 -0.625q-0.65625 -0.625 -0.65625 -1.828125q0 -0.78125 0.265625 -2.0l2.03125 -8.453125l1.84375 -0.296875l-0.75 3.0625l3.359375 0l-0.359375 1.484375l-3.359375 0l-1.046875 4.359375q-0.21875 0.890625 -0.21875 1.5625q0 0.625 0.328125 0.90625q0.34375 0.265625 1.140625 0.265625q0.5625 0 1.09375 -0.171875q0.53125 -0.1875 0.8125 -0.34375l0.140625 1.515625q-0.296875 0.15625 -0.984375 0.359375q-0.671875 0.203125 -1.546875 0.203125zm9.538528 -10.359375q0.21875 0 0.5 0.03125q0.296875 0.015625 0.5625 0.0625q0.28125 0.046875 0.5 0.09375q0.234375 0.046875 0.359375 0.109375l-0.515625 1.53125q-0.390625 -0.15625 -0.890625 -0.21875q-0.484375 -0.078125 -0.9375 -0.078125q-0.40625 0 -0.796875 0.0625q-0.375 0.046875 -0.671875 0.140625l-2.0 8.359375l-1.78125 0l2.28125 -9.5q0.765625 -0.265625 1.640625 -0.421875q0.875 -0.171875 1.75 -0.171875zm8.0338745 10.203125q-0.09375 -0.203125 -0.1875 -0.453125q-0.09375 -0.265625 -0.15625 -0.546875q-0.40625 0.375 -1.109375 0.765625q-0.703125 0.375 -1.734375 0.375q-0.828125 0 -1.4375 -0.265625q-0.59375 -0.265625 -0.984375 -0.734375q-0.375 -0.484375 -0.5625 -1.125q-0.171875 -0.65625 -0.171875 -1.4375q0 -1.265625 0.421875 -2.484375q0.4375 -1.21875 1.28125 -2.15625q0.859375 -0.953125 2.15625 -1.546875q1.296875 -0.59375 3.015625 -0.59375q0.515625 0 1.203125 0.125q0.6875 0.109375 1.171875 0.375l-1.453125 5.96875q-0.09375 0.4375 -0.171875 0.84375q-0.0625 0.390625 -0.0625 0.828125q0 0.4375 0.078125 0.890625q0.078125 0.4375 0.265625 0.953125l-1.5625 0.21875zm-2.828125 -1.359375q0.796875 0 1.359375 -0.34375q0.578125 -0.34375 1.0 -0.796875q0.015625 -0.328125 0.0625 -0.671875q0.046875 -0.359375 0.125 -0.71875l1.140625 -4.71875q-0.09375 -0.03125 -0.3125 -0.046875q-0.21875 -0.015625 -0.390625 -0.015625q-1.078125 0 -1.953125 0.421875q-0.875 0.40625 -1.5 1.109375q-0.609375 0.6875 -0.953125 1.609375q-0.328125 0.921875 -0.328125 1.921875q0 0.40625 0.078125 0.8125q0.078125 0.40625 0.28125 0.71875q0.203125 0.3125 0.53125 0.515625q0.328125 0.203125 0.859375 0.203125zm11.977127 -8.875q0.921875 0 1.59375 0.265625q0.6875 0.265625 1.125 0.734375q0.4375 0.46875 0.65625 1.109375q0.21875 0.625 0.21875 1.390625q0 1.3125 -0.40625 2.53125q-0.390625 1.21875 -1.21875 2.171875q-0.828125 0.953125 -2.09375 1.53125q-1.265625 0.5625 -3.0 0.5625q-0.203125 0 -0.453125 -0.015625q-0.25 -0.015625 -0.4375 -0.0625l-0.8125 3.421875l-1.765625 0l3.109375 -12.984375q0.796875 -0.3125 1.734375 -0.484375q0.953125 -0.171875 1.75 -0.171875zm-3.65625 8.734375q0.203125 0.046875 0.421875 0.0625q0.21875 0 0.421875 0q1.078125 0 1.9375 -0.421875q0.859375 -0.421875 1.453125 -1.125q0.59375 -0.71875 0.921875 -1.640625q0.328125 -0.921875 0.328125 -1.921875q0 -0.421875 -0.109375 -0.8125q-0.09375 -0.40625 -0.34375 -0.703125q-0.25 -0.3125 -0.6875 -0.484375q-0.4375 -0.1875 -1.125 -0.1875q-0.484375 0 -0.890625 0.09375q-0.390625 0.078125 -0.65625 0.15625l-1.671875 6.984375z" fill-rule="nonzero"></path><path fill="#cccccc" d="m139.12335 31.767715l0 0c0 -10.776075 23.295303 -19.51181 52.03151 -19.51181l0 0c28.73619 0 52.031494 8.735735 52.031494 19.51181l0 0c0 10.776077 -23.295303 19.51181 -52.031494 19.51181l0 0c-28.736206 0 -52.03151 -8.735733 -52.03151 -19.51181z" fill-rule="nonzero"></path><path fill="#000000" d="m173.58769 35.580215l-1.015625 0l1.3125 -5.499998q0.5 -0.15625 1.09375 -0.25q0.59375 -0.09375 1.046875 -0.09375q0.5 0 0.859375 0.140625q0.359375 0.140625 0.578125 0.375q0.21875 0.234375 0.3125 0.578125q0.109375 0.328125 0.109375 0.71875q0 0.265625 -0.046875 0.5468731q-0.03125 0.265625 -0.109375 0.5625l-0.703125 2.921875l-1.015625 0l0.640625 -2.703125q0.078125 -0.3125 0.140625 -0.625q0.078125 -0.3281231 0.078125 -0.6093731q0 -0.4375 -0.25 -0.734375q-0.234375 -0.296875 -0.890625 -0.296875q-0.265625 0 -0.53125 0.046875q-0.265625 0.03125 -0.4375 0.078125l-1.171875 4.843748zm7.0435333 0.140625q-0.90625 0 -1.421875 -0.53125q-0.515625 -0.53125 -0.515625 -1.46875q0 -0.640625 0.1875 -1.34375q0.1875 -0.7031231 0.578125 -1.2968731q0.390625 -0.59375 1.015625 -0.96875q0.640625 -0.390625 1.53125 -0.390625q0.890625 0 1.40625 0.53125q0.515625 0.53125 0.515625 1.46875q0 0.6406231 -0.1875 1.3437481q-0.171875 0.703125 -0.578125 1.296875q-0.390625 0.59375 -1.015625 0.984375q-0.625 0.375 -1.515625 0.375zm0.171875 -0.859375q0.5 0 0.890625 -0.28125q0.390625 -0.296875 0.65625 -0.734375q0.265625 -0.453125 0.40625 -0.984375q0.140625 -0.546875 0.140625 -1.0468731q0 -0.5625 -0.25 -0.890625q-0.234375 -0.34375 -0.828125 -0.34375q-0.484375 0 -0.875 0.296875q-0.390625 0.28125 -0.671875 0.734375q-0.265625 0.4374981 -0.40625 0.9843731q-0.140625 0.53125 -0.140625 1.03125q0 0.5625 0.234375 0.90625q0.25 0.328125 0.84375 0.328125zm8.195526 -0.421875q0 0.265625 0.046875 0.53125q0.046875 0.25 0.15625 0.546875l-0.90625 0.125q-0.125 -0.234375 -0.1875 -0.578125q-0.234375 0.21875 -0.640625 0.4375q-0.40625 0.21875 -1.0 0.21875q-0.484375 0 -0.84375 -0.140625q-0.34375 -0.15625 -0.578125 -0.421875q-0.234375 -0.28125 -0.34375 -0.65625q-0.109375 -0.390625 -0.109375 -0.828125q0 -0.75 0.25 -1.453125q0.25 -0.7031231 0.734375 -1.2499981q0.484375 -0.546875 1.21875 -0.875q0.75 -0.34375 1.71875 -0.34375q0.125 0 0.25 0.015625q0.125 0 0.25 0.03125l0.609375 -2.578125l1.078125 -0.171875l-1.5625 6.437498q-0.046875 0.25 -0.09375 0.484375q-0.046875 0.21875 -0.046875 0.46875zm-2.328125 0.421875q0.46875 0 0.78125 -0.1875q0.328125 -0.203125 0.578125 -0.453125q0 -0.1875 0.03125 -0.390625q0.03125 -0.203125 0.078125 -0.4375l0.671875 -2.749998q-0.109375 -0.03125 -0.234375 -0.03125q-0.109375 0 -0.21875 0q-0.625 0 -1.140625 0.25q-0.5 0.234375 -0.859375 0.640625q-0.359375 0.40625 -0.5625 0.9374981q-0.1875 0.53125 -0.1875 1.109375q0 0.265625 0.0625 0.5q0.0625 0.21875 0.171875 0.40625q0.125 0.171875 0.328125 0.296875q0.203125 0.109375 0.5 0.109375zm4.9227753 -2.28125q0.625 -0.03125 1.15625 -0.078125q0.53125 -0.0625 0.90625 -0.203125q0.390625 -0.15625 0.609375 -0.4062481q0.21875 -0.265625 0.21875 -0.671875q0 -0.09375 -0.046875 -0.203125q-0.03125 -0.109375 -0.125 -0.203125q-0.09375 -0.09375 -0.265625 -0.15625q-0.15625 -0.0625 -0.40625 -0.0625q-0.375 0 -0.71875 0.171875q-0.328125 0.15625 -0.59375 0.4375q-0.265625 0.265625 -0.453125 0.625q-0.1875 0.3437481 -0.28125 0.7499981zm1.03125 3.140625q-0.546875 0 -0.96875 -0.15625q-0.40625 -0.15625 -0.6875 -0.4375q-0.265625 -0.28125 -0.40625 -0.65625q-0.125 -0.375 -0.125 -0.796875q0 -0.765625 0.234375 -1.484375q0.234375 -0.7187481 0.65625 -1.2656231q0.4375 -0.546875 1.046875 -0.875q0.625 -0.328125 1.40625 -0.328125q0.453125 0 0.765625 0.125q0.328125 0.109375 0.53125 0.3125q0.203125 0.203125 0.296875 0.46875q0.109375 0.25 0.109375 0.515625q0 0.515625 -0.1875 0.8749981q-0.1875 0.359375 -0.5 0.609375q-0.3125 0.234375 -0.71875 0.375q-0.40625 0.125 -0.859375 0.203125q-0.4375 0.078125 -0.90625 0.109375q-0.453125 0.015625 -0.859375 0.046875q-0.015625 0.078125 -0.015625 0.140625q0 0.046875 0 0.09375q0 0.25 0.0625 0.484375q0.0625 0.21875 0.21875 0.390625q0.171875 0.15625 0.46875 0.265625q0.296875 0.09375 0.765625 0.09375q0.203125 0 0.421875 -0.03125q0.234375 -0.046875 0.4375 -0.109375q0.203125 -0.0625 0.359375 -0.109375q0.171875 -0.0625 0.234375 -0.125l0.078125 0.875q-0.21875 0.125 -0.703125 0.25q-0.484375 0.140625 -1.15625 0.140625zm9.879364 -0.609375q-0.703125 0 -0.984375 -0.390625q-0.25 0.15625 -0.59375 0.25q-0.34375 0.09375 -0.734375 0.09375q-0.8125 0 -1.3125 -0.46875q-0.5 -0.46875 -0.5 -1.40625q0 -0.625 0.21875 -1.2031231q0.21875 -0.59375 0.625 -1.03125q0.40625 -0.453125 0.984375 -0.71875q0.578125 -0.28125 1.328125 -0.28125q0.578125 0 1.0 0.109375q0.421875 0.09375 0.640625 0.1875l-0.796875 3.343748q-0.0625 0.15625 -0.0625 0.3125q0 0.125 0.0625 0.234375q0.078125 0.09375 0.3125 0.09375q0.453125 0 0.78125 -0.265625q0.328125 -0.265625 0.546875 -0.6875q0.234375 -0.4375 0.328125 -0.9375q0.109375 -0.4999981 0.109375 -0.9843731q0 -0.59375 -0.15625 -1.09375q-0.15625 -0.515625 -0.5 -0.875q-0.34375 -0.375 -0.90625 -0.578125q-0.5625 -0.203125 -1.375 -0.203125q-0.953125 0 -1.78125 0.421875q-0.828125 0.40625 -1.4375 1.09375q-0.59375 0.6875 -0.9375 1.59375q-0.34375 0.9062481 -0.34375 1.9062481q0 0.734375 0.203125 1.265625q0.21875 0.515625 0.609375 0.859375q0.390625 0.34375 0.921875 0.5q0.546875 0.171875 1.1875 0.171875q0.640625 0 1.078125 -0.078125q0.4375 -0.078125 0.546875 -0.125l-0.0625 0.8125q-0.109375 0.03125 -0.296875 0.0625q-0.1875 0.046875 -0.421875 0.078125q-0.234375 0.046875 -0.515625 0.0625q-0.265625 0.03125 -0.515625 0.03125q-0.796875 0 -1.46875 -0.234375q-0.671875 -0.21875 -1.171875 -0.671875q-0.484375 -0.4375 -0.765625 -1.09375q-0.265625 -0.671875 -0.265625 -1.53125q0 -1.109375 0.359375 -2.171873q0.375 -1.078125 1.09375 -1.90625q0.71875 -0.84375 1.75 -1.359375q1.03125 -0.515625 2.375 -0.515625q1.796875 0 2.765625 0.890625q0.96875 0.890625 0.96875 2.625q0 0.515625 -0.125 1.1718731q-0.109375 0.65625 -0.4375 1.25q-0.3125 0.578125 -0.875 0.984375q-0.5625 0.40625 -1.453125 0.40625zm-2.15625 -0.875q0.59375 0 1.0 -0.21875q0 -0.1875 0.015625 -0.3125q0.03125 -0.125 0.0625 -0.25l0.625 -2.578123q-0.046875 -0.03125 -0.234375 -0.046875q-0.1875 -0.03125 -0.40625 -0.03125q-0.46875 0 -0.84375 0.1875q-0.375 0.1875 -0.640625 0.515625q-0.265625 0.3125 -0.40625 0.7343731q-0.140625 0.421875 -0.140625 0.875q0 0.59375 0.234375 0.859375q0.25 0.265625 0.734375 0.265625zm9.186691 1.40625q-0.046875 -0.125 -0.109375 -0.265625q-0.046875 -0.15625 -0.09375 -0.3125q-0.234375 0.21875 -0.640625 0.4375q-0.40625 0.21875 -1.0 0.21875q-0.484375 0 -0.828125 -0.15625q-0.34375 -0.15625 -0.578125 -0.421875q-0.21875 -0.28125 -0.328125 -0.65625q-0.09375 -0.375 -0.09375 -0.8125q0 -0.75 0.25 -1.453125q0.25 -0.7031231 0.734375 -1.2499981q0.5 -0.546875 1.25 -0.890625q0.75 -0.34375 1.75 -0.34375q0.296875 0 0.6875 0.078125q0.40625 0.0625 0.6875 0.203125l-0.84375 3.468748q-0.0625 0.25 -0.109375 0.484375q-0.03125 0.21875 -0.03125 0.46875q0 0.265625 0.046875 0.53125q0.046875 0.25 0.15625 0.546875l-0.90625 0.125zm-1.640625 -0.78125q0.46875 0 0.796875 -0.203125q0.328125 -0.203125 0.578125 -0.46875q0 -0.1875 0.03125 -0.390625q0.03125 -0.203125 0.078125 -0.40625l0.65625 -2.734373q-0.0625 -0.015625 -0.1875 -0.03125q-0.125 -0.015625 -0.21875 -0.015625q-0.625 0 -1.140625 0.25q-0.5 0.234375 -0.859375 0.640625q-0.359375 0.40625 -0.5625 0.9374981q-0.1875 0.53125 -0.1875 1.109375q0 0.234375 0.046875 0.484375q0.046875 0.234375 0.15625 0.421875q0.125 0.171875 0.3125 0.296875q0.203125 0.109375 0.5 0.109375z" fill-rule="nonzero"></path><path fill="#cccccc" d="m347.24933 31.767715l0 0c0 -10.776075 23.295319 -19.51181 52.031525 -19.51181l0 0c28.736176 0 52.031494 8.735735 52.031494 19.51181l0 0c0 10.776077 -23.295319 19.51181 -52.031494 19.51181l0 0c-28.736206 0 -52.031525 -8.735733 -52.031525 -19.51181z" fill-rule="nonzero"></path><path fill="#000000" d="m381.65506 35.580215l-1.015625 0l1.3125 -5.499998q0.5 -0.15625 1.09375 -0.25q0.59375 -0.09375 1.046875 -0.09375q0.5 0 0.859375 0.140625q0.359375 0.140625 0.578125 0.375q0.21875 0.234375 0.3125 0.578125q0.109375 0.328125 0.109375 0.71875q0 0.265625 -0.046875 0.5468731q-0.03125 0.265625 -0.109375 0.5625l-0.703125 2.921875l-1.015625 0l0.640625 -2.703125q0.078125 -0.3125 0.140625 -0.625q0.078125 -0.3281231 0.078125 -0.6093731q0 -0.4375 -0.25 -0.734375q-0.234375 -0.296875 -0.890625 -0.296875q-0.265625 0 -0.53125 0.046875q-0.265625 0.03125 -0.4375 0.078125l-1.171875 4.843748zm7.0435486 0.140625q-0.90625 0 -1.421875 -0.53125q-0.515625 -0.53125 -0.515625 -1.46875q0 -0.640625 0.1875 -1.34375q0.1875 -0.7031231 0.578125 -1.2968731q0.390625 -0.59375 1.015625 -0.96875q0.640625 -0.390625 1.53125 -0.390625q0.890625 0 1.40625 0.53125q0.515625 0.53125 0.515625 1.46875q0 0.6406231 -0.1875 1.3437481q-0.171875 0.703125 -0.578125 1.296875q-0.390625 0.59375 -1.015625 0.984375q-0.625 0.375 -1.515625 0.375zm0.171875 -0.859375q0.5 0 0.890625 -0.28125q0.390625 -0.296875 0.65625 -0.734375q0.265625 -0.453125 0.40625 -0.984375q0.140625 -0.546875 0.140625 -1.0468731q0 -0.5625 -0.25 -0.890625q-0.234375 -0.34375 -0.828125 -0.34375q-0.484375 0 -0.875 0.296875q-0.390625 0.28125 -0.671875 0.734375q-0.265625 0.4374981 -0.40625 0.9843731q-0.140625 0.53125 -0.140625 1.03125q0 0.5625 0.234375 0.90625q0.25 0.328125 0.84375 0.328125zm8.195526 -0.421875q0 0.265625 0.046875 0.53125q0.046875 0.25 0.15625 0.546875l-0.90625 0.125q-0.125 -0.234375 -0.1875 -0.578125q-0.234375 0.21875 -0.640625 0.4375q-0.40625 0.21875 -1.0 0.21875q-0.484375 0 -0.84375 -0.140625q-0.34375 -0.15625 -0.578125 -0.421875q-0.234375 -0.28125 -0.34375 -0.65625q-0.109375 -0.390625 -0.109375 -0.828125q0 -0.75 0.25 -1.453125q0.25 -0.7031231 0.734375 -1.2499981q0.484375 -0.546875 1.21875 -0.875q0.75 -0.34375 1.71875 -0.34375q0.125 0 0.25 0.015625q0.125 0 0.25 0.03125l0.609375 -2.578125l1.078125 -0.171875l-1.5625 6.437498q-0.046875 0.25 -0.09375 0.484375q-0.046875 0.21875 -0.046875 0.46875zm-2.328125 0.421875q0.46875 0 0.78125 -0.1875q0.328125 -0.203125 0.578125 -0.453125q0 -0.1875 0.03125 -0.390625q0.03125 -0.203125 0.078125 -0.4375l0.671875 -2.749998q-0.109375 -0.03125 -0.234375 -0.03125q-0.109375 0 -0.21875 0q-0.625 0 -1.140625 0.25q-0.5 0.234375 -0.859375 0.640625q-0.359375 0.40625 -0.5625 0.9374981q-0.1875 0.53125 -0.1875 1.109375q0 0.265625 0.0625 0.5q0.0625 0.21875 0.171875 0.40625q0.125 0.171875 0.328125 0.296875q0.203125 0.109375 0.5 0.109375zm4.92276 -2.28125q0.625 -0.03125 1.15625 -0.078125q0.53125 -0.0625 0.90625 -0.203125q0.390625 -0.15625 0.609375 -0.4062481q0.21875 -0.265625 0.21875 -0.671875q0 -0.09375 -0.046875 -0.203125q-0.03125 -0.109375 -0.125 -0.203125q-0.09375 -0.09375 -0.265625 -0.15625q-0.15625 -0.0625 -0.40625 -0.0625q-0.375 0 -0.71875 0.171875q-0.328125 0.15625 -0.59375 0.4375q-0.265625 0.265625 -0.453125 0.625q-0.1875 0.3437481 -0.28125 0.7499981zm1.03125 3.140625q-0.546875 0 -0.96875 -0.15625q-0.40625 -0.15625 -0.6875 -0.4375q-0.265625 -0.28125 -0.40625 -0.65625q-0.125 -0.375 -0.125 -0.796875q0 -0.765625 0.234375 -1.484375q0.234375 -0.7187481 0.65625 -1.2656231q0.4375 -0.546875 1.046875 -0.875q0.625 -0.328125 1.40625 -0.328125q0.453125 0 0.765625 0.125q0.328125 0.109375 0.53125 0.3125q0.203125 0.203125 0.296875 0.46875q0.109375 0.25 0.109375 0.515625q0 0.515625 -0.1875 0.8749981q-0.1875 0.359375 -0.5 0.609375q-0.3125 0.234375 -0.71875 0.375q-0.40625 0.125 -0.859375 0.203125q-0.4375 0.078125 -0.90625 0.109375q-0.453125 0.015625 -0.859375 0.046875q-0.015625 0.078125 -0.015625 0.140625q0 0.046875 0 0.09375q0 0.25 0.0625 0.484375q0.0625 0.21875 0.21875 0.390625q0.171875 0.15625 0.46875 0.265625q0.296875 0.09375 0.765625 0.09375q0.203125 0 0.421875 -0.03125q0.234375 -0.046875 0.4375 -0.109375q0.203125 -0.0625 0.359375 -0.109375q0.171875 -0.0625 0.234375 -0.125l0.078125 0.875q-0.21875 0.125 -0.703125 0.25q-0.484375 0.140625 -1.15625 0.140625zm9.879364 -0.609375q-0.703125 0 -0.984375 -0.390625q-0.25 0.15625 -0.59375 0.25q-0.34375 0.09375 -0.734375 0.09375q-0.8125 0 -1.3125 -0.46875q-0.5 -0.46875 -0.5 -1.40625q0 -0.625 0.21875 -1.2031231q0.21875 -0.59375 0.625 -1.03125q0.40625 -0.453125 0.984375 -0.71875q0.578125 -0.28125 1.328125 -0.28125q0.578125 0 1.0 0.109375q0.421875 0.09375 0.640625 0.1875l-0.796875 3.343748q-0.0625 0.15625 -0.0625 0.3125q0 0.125 0.0625 0.234375q0.078125 0.09375 0.3125 0.09375q0.453125 0 0.78125 -0.265625q0.328125 -0.265625 0.546875 -0.6875q0.234375 -0.4375 0.328125 -0.9375q0.109375 -0.4999981 0.109375 -0.9843731q0 -0.59375 -0.15625 -1.09375q-0.15625 -0.515625 -0.5 -0.875q-0.34375 -0.375 -0.90625 -0.578125q-0.5625 -0.203125 -1.375 -0.203125q-0.953125 0 -1.78125 0.421875q-0.828125 0.40625 -1.4375 1.09375q-0.59375 0.6875 -0.9375 1.59375q-0.34375 0.9062481 -0.34375 1.9062481q0 0.734375 0.203125 1.265625q0.21875 0.515625 0.609375 0.859375q0.390625 0.34375 0.921875 0.5q0.546875 0.171875 1.1875 0.171875q0.640625 0 1.078125 -0.078125q0.4375 -0.078125 0.546875 -0.125l-0.0625 0.8125q-0.109375 0.03125 -0.296875 0.0625q-0.1875 0.046875 -0.421875 0.078125q-0.234375 0.046875 -0.515625 0.0625q-0.265625 0.03125 -0.515625 0.03125q-0.796875 0 -1.46875 -0.234375q-0.671875 -0.21875 -1.171875 -0.671875q-0.484375 -0.4375 -0.765625 -1.09375q-0.265625 -0.671875 -0.265625 -1.53125q0 -1.109375 0.359375 -2.171873q0.375 -1.078125 1.09375 -1.90625q0.71875 -0.84375 1.75 -1.359375q1.03125 -0.515625 2.375 -0.515625q1.796875 0 2.765625 0.890625q0.96875 0.890625 0.96875 2.625q0 0.515625 -0.125 1.1718731q-0.109375 0.65625 -0.4375 1.25q-0.3125 0.578125 -0.875 0.984375q-0.5625 0.40625 -1.453125 0.40625zm-2.15625 -0.875q0.59375 0 1.0 -0.21875q0 -0.1875 0.015625 -0.3125q0.03125 -0.125 0.0625 -0.25l0.625 -2.578123q-0.046875 -0.03125 -0.234375 -0.046875q-0.1875 -0.03125 -0.40625 -0.03125q-0.46875 0 -0.84375 0.1875q-0.375 0.1875 -0.640625 0.515625q-0.265625 0.3125 -0.40625 0.7343731q-0.140625 0.421875 -0.140625 0.875q0 0.59375 0.234375 0.859375q0.25 0.265625 0.734375 0.265625zm7.6085815 -4.140623q0.265625 -0.15625 0.59375 -0.265625q0.328125 -0.109375 0.703125 -0.109375q0.46875 0 0.828125 0.15625q0.359375 0.140625 0.578125 0.421875q0.234375 0.265625 0.34375 0.640625q0.125 0.375 0.125 0.796875q0 0.7656231 -0.25 1.4843731q-0.234375 0.703125 -0.734375 1.265625q-0.484375 0.546875 -1.234375 0.890625q-0.734375 0.328125 -1.734375 0.328125q-0.171875 0 -0.375 -0.015625q-0.1875 -0.015625 -0.390625 -0.0625q-0.203125 -0.046875 -0.40625 -0.109375q-0.1875 -0.0625 -0.328125 -0.15625l1.953125 -8.140623l1.0625 -0.171875l-0.734375 3.046875zm1.046875 0.484375q-0.328125 0 -0.65625 0.125q-0.328125 0.109375 -0.609375 0.328125l-0.890625 3.718748q0.109375 0.03125 0.25 0.046875q0.140625 0.015625 0.28125 0.015625q0.625 0 1.125 -0.234375q0.515625 -0.25 0.859375 -0.65625q0.359375 -0.421875 0.546875 -0.953125q0.203125 -0.53125 0.203125 -1.1249981q0 -0.234375 -0.0625 -0.46875q-0.046875 -0.234375 -0.171875 -0.40625q-0.125 -0.171875 -0.34375 -0.28125q-0.203125 -0.109375 -0.53125 -0.109375z" fill-rule="nonzero"></path><path fill="#cccccc" d="m243.18636 109.81627l0 0c0 -10.77607 23.295303 -19.51181 52.03148 -19.51181l0 0c28.736206 0 52.031494 8.735741 52.031494 19.51181l0 0c0 10.776077 -23.295288 19.51181 -52.031494 19.51181l0 0c-28.736176 0 -52.03148 -8.735733 -52.03148 -19.51181z" fill-rule="nonzero"></path><path fill="#000000" d="m278.1462 113.62878l-1.015625 0l1.3125 -5.5q0.5 -0.15625 1.09375 -0.25q0.59375 -0.09375 1.046875 -0.09375q0.5 0 0.859375 0.140625q0.359375 0.140625 0.578125 0.375q0.21875 0.234375 0.3125 0.578125q0.109375 0.328125 0.109375 0.71875q0 0.265625 -0.046875 0.546875q-0.03125 0.265625 -0.109375 0.5625l-0.703125 2.921875l-1.015625 0l0.640625 -2.703125q0.078125 -0.3125 0.140625 -0.625q0.078125 -0.328125 0.078125 -0.609375q0 -0.4375 -0.25 -0.734375q-0.234375 -0.296875 -0.890625 -0.296875q-0.265625 0 -0.53125 0.046875q-0.265625 0.03125 -0.4375 0.078125l-1.171875 4.84375zm7.043518 0.140625q-0.90625 0 -1.421875 -0.53125q-0.515625 -0.53125 -0.515625 -1.46875q0 -0.640625 0.1875 -1.34375q0.1875 -0.703125 0.578125 -1.296875q0.390625 -0.59375 1.015625 -0.96875q0.640625 -0.390625 1.53125 -0.390625q0.890625 0 1.40625 0.53125q0.515625 0.53125 0.515625 1.46875q0 0.640625 -0.1875 1.34375q-0.171875 0.703125 -0.578125 1.296875q-0.390625 0.59375 -1.015625 0.984375q-0.625 0.375 -1.515625 0.375zm0.171875 -0.859375q0.5 0 0.890625 -0.28125q0.390625 -0.296875 0.65625 -0.734375q0.265625 -0.453125 0.40625 -0.984375q0.140625 -0.546875 0.140625 -1.046875q0 -0.5625 -0.25 -0.890625q-0.234375 -0.34375 -0.828125 -0.34375q-0.484375 0 -0.875 0.296875q-0.390625 0.28125 -0.671875 0.734375q-0.265625 0.4375 -0.40625 0.984375q-0.140625 0.53125 -0.140625 1.03125q0 0.5625 0.234375 0.90625q0.25 0.328125 0.84375 0.328125zm8.195526 -0.421875q0 0.265625 0.046875 0.53125q0.046875 0.25 0.15625 0.546875l-0.90625 0.125q-0.125 -0.234375 -0.1875 -0.578125q-0.234375 0.21875 -0.640625 0.4375q-0.40625 0.21875 -1.0 0.21875q-0.484375 0 -0.84375 -0.140625q-0.34375 -0.15625 -0.578125 -0.421875q-0.234375 -0.28125 -0.34375 -0.65625q-0.109375 -0.390625 -0.109375 -0.828125q0 -0.75 0.25 -1.453125q0.25 -0.703125 0.734375 -1.25q0.484375 -0.546875 1.21875 -0.875q0.75 -0.34375 1.71875 -0.34375q0.125 0 0.25 0.015625q0.125 0 0.25 0.03125l0.609375 -2.578125l1.078125 -0.171875l-1.5625 6.4375q-0.046875 0.25 -0.09375 0.484375q-0.046875 0.21875 -0.046875 0.46875zm-2.328125 0.421875q0.46875 0 0.78125 -0.1875q0.328125 -0.203125 0.578125 -0.453125q0 -0.1875 0.03125 -0.390625q0.03125 -0.203125 0.078125 -0.4375l0.671875 -2.75q-0.109375 -0.03125 -0.234375 -0.03125q-0.109375 0 -0.21875 0q-0.625 0 -1.140625 0.25q-0.5 0.234375 -0.859375 0.640625q-0.359375 0.40625 -0.5625 0.9375q-0.1875 0.53125 -0.1875 1.109375q0 0.265625 0.0625 0.5q0.0625 0.21875 0.171875 0.40625q0.125 0.171875 0.328125 0.296875q0.203125 0.109375 0.5 0.109375zm4.9227905 -2.28125q0.625 -0.03125 1.15625 -0.078125q0.53125 -0.0625 0.90625 -0.203125q0.390625 -0.15625 0.609375 -0.40625q0.21875 -0.265625 0.21875 -0.671875q0 -0.09375 -0.046875 -0.203125q-0.03125 -0.109375 -0.125 -0.203125q-0.09375 -0.09375 -0.265625 -0.15625q-0.15625 -0.0625 -0.40625 -0.0625q-0.375 0 -0.71875 0.171875q-0.328125 0.15625 -0.59375 0.4375q-0.265625 0.265625 -0.453125 0.625q-0.1875 0.34375 -0.28125 0.75zm1.03125 3.140625q-0.546875 0 -0.96875 -0.15625q-0.40625 -0.15625 -0.6875 -0.4375q-0.265625 -0.28125 -0.40625 -0.65625q-0.125 -0.375 -0.125 -0.796875q0 -0.765625 0.234375 -1.484375q0.234375 -0.71875 0.65625 -1.265625q0.4375 -0.546875 1.046875 -0.875q0.625 -0.328125 1.40625 -0.328125q0.453125 0 0.765625 0.125q0.328125 0.109375 0.53125 0.3125q0.203125 0.203125 0.296875 0.46875q0.109375 0.25 0.109375 0.515625q0 0.515625 -0.1875 0.875q-0.1875 0.359375 -0.5 0.609375q-0.3125 0.234375 -0.71875 0.375q-0.40625 0.125 -0.859375 0.203125q-0.4375 0.078125 -0.90625 0.109375q-0.453125 0.015625 -0.859375 0.046875q-0.015625 0.078125 -0.015625 0.140625q0 0.046875 0 0.09375q0 0.25 0.0625 0.484375q0.0625 0.21875 0.21875 0.390625q0.171875 0.15625 0.46875 0.265625q0.296875 0.09375 0.765625 0.09375q0.203125 0 0.421875 -0.03125q0.234375 -0.046875 0.4375 -0.109375q0.203125 -0.0625 0.359375 -0.109375q0.171875 -0.0625 0.234375 -0.125l0.078125 0.875q-0.21875 0.125 -0.703125 0.25q-0.484375 0.140625 -1.15625 0.140625zm9.879364 -0.609375q-0.703125 0 -0.984375 -0.390625q-0.25 0.15625 -0.59375 0.25q-0.34375 0.09375 -0.734375 0.09375q-0.8125 0 -1.3125 -0.46875q-0.5 -0.46875 -0.5 -1.40625q0 -0.625 0.21875 -1.203125q0.21875 -0.59375 0.625 -1.03125q0.40625 -0.453125 0.984375 -0.71875q0.578125 -0.28125 1.328125 -0.28125q0.578125 0 1.0 0.109375q0.421875 0.09375 0.640625 0.1875l-0.796875 3.34375q-0.0625 0.15625 -0.0625 0.3125q0 0.125 0.0625 0.234375q0.078125 0.09375 0.3125 0.09375q0.453125 0 0.78125 -0.265625q0.328125 -0.265625 0.546875 -0.6875q0.234375 -0.4375 0.328125 -0.9375q0.109375 -0.5 0.109375 -0.984375q0 -0.59375 -0.15625 -1.09375q-0.15625 -0.515625 -0.5 -0.875q-0.34375 -0.375 -0.90625 -0.578125q-0.5625 -0.203125 -1.375 -0.203125q-0.953125 0 -1.78125 0.421875q-0.828125 0.40625 -1.4375 1.09375q-0.59375 0.6875 -0.9375 1.59375q-0.34375 0.90625 -0.34375 1.90625q0 0.734375 0.203125 1.265625q0.21875 0.515625 0.609375 0.859375q0.390625 0.34375 0.921875 0.5q0.546875 0.171875 1.1875 0.171875q0.640625 0 1.078125 -0.078125q0.4375 -0.078125 0.546875 -0.125l-0.0625 0.8125q-0.109375 0.03125 -0.296875 0.0625q-0.1875 0.046875 -0.421875 0.078125q-0.234375 0.046875 -0.515625 0.0625q-0.265625 0.03125 -0.515625 0.03125q-0.796875 0 -1.46875 -0.234375q-0.671875 -0.21875 -1.171875 -0.671875q-0.484375 -0.4375 -0.765625 -1.09375q-0.265625 -0.671875 -0.265625 -1.53125q0 -1.109375 0.359375 -2.171875q0.375 -1.078125 1.09375 -1.90625q0.71875 -0.84375 1.75 -1.359375q1.03125 -0.515625 2.375 -0.515625q1.796875 0 2.765625 0.890625q0.96875 0.890625 0.96875 2.625q0 0.515625 -0.125 1.171875q-0.109375 0.65625 -0.4375 1.25q-0.3125 0.578125 -0.875 0.984375q-0.5625 0.40625 -1.453125 0.40625zm-2.15625 -0.875q0.59375 0 1.0 -0.21875q0 -0.1875 0.015625 -0.3125q0.03125 -0.125 0.0625 -0.25l0.625 -2.578125q-0.046875 -0.03125 -0.234375 -0.046875q-0.1875 -0.03125 -0.40625 -0.03125q-0.46875 0 -0.84375 0.1875q-0.375 0.1875 -0.640625 0.515625q-0.265625 0.3125 -0.40625 0.734375q-0.140625 0.421875 -0.140625 0.875q0 0.59375 0.234375 0.859375q0.25 0.265625 0.734375 0.265625zm5.530426 -0.703125q0 -0.75 0.21875 -1.4375q0.234375 -0.703125 0.671875 -1.21875q0.453125 -0.53125 1.078125 -0.84375q0.640625 -0.3125 1.46875 -0.3125q0.359375 0 0.6875 0.046875q0.34375 0.046875 0.640625 0.1875l-0.390625 0.859375q-0.171875 -0.09375 -0.421875 -0.140625q-0.234375 -0.0625 -0.609375 -0.0625q-0.53125 0 -0.96875 0.234375q-0.421875 0.234375 -0.734375 0.625q-0.296875 0.390625 -0.453125 0.90625q-0.15625 0.515625 -0.15625 1.0625q0 0.28125 0.0625 0.53125q0.0625 0.25 0.203125 0.453125q0.15625 0.1875 0.40625 0.296875q0.265625 0.109375 0.671875 0.109375q0.1875 0 0.40625 -0.03125q0.234375 -0.046875 0.421875 -0.09375q0.1875 -0.0625 0.328125 -0.125q0.15625 -0.0625 0.21875 -0.109375l0.078125 0.875q-0.203125 0.125 -0.640625 0.25q-0.4375 0.125 -1.0 0.125q-0.53125 0 -0.9375 -0.15625q-0.40625 -0.15625 -0.6875 -0.453125q-0.265625 -0.296875 -0.421875 -0.6875q-0.140625 -0.40625 -0.140625 -0.890625z" fill-rule="nonzero"></path><path fill="#cccccc" d="m35.060368 109.81627l0 0c0 -10.77607 23.295292 -19.51181 52.031498 -19.51181l0 0c28.736198 0 52.031487 8.735741 52.031487 19.51181l0 0c0 10.776077 -23.295288 19.51181 -52.031487 19.51181l0 0c-28.736206 0 -52.031498 -8.735733 -52.031498 -19.51181z" fill-rule="nonzero"></path><path fill="#000000" d="m69.50872 113.62878l-1.015625 0l1.3125 -5.5q0.5 -0.15625 1.09375 -0.25q0.59375 -0.09375 1.046875 -0.09375q0.5 0 0.859375 0.140625q0.359375 0.140625 0.578125 0.375q0.21875 0.234375 0.3125 0.578125q0.109375 0.328125 0.109375 0.71875q0 0.265625 -0.046875 0.546875q-0.03125 0.265625 -0.109375 0.5625l-0.703125 2.921875l-1.015625 0l0.640625 -2.703125q0.078125 -0.3125 0.140625 -0.625q0.078125 -0.328125 0.078125 -0.609375q0 -0.4375 -0.25 -0.734375q-0.234375 -0.296875 -0.890625 -0.296875q-0.265625 0 -0.53125 0.046875q-0.265625 0.03125 -0.4375 0.078125l-1.171875 4.84375zm7.0435333 0.140625q-0.90625 0 -1.421875 -0.53125q-0.515625 -0.53125 -0.515625 -1.46875q0 -0.640625 0.1875 -1.34375q0.1875 -0.703125 0.578125 -1.296875q0.390625 -0.59375 1.015625 -0.96875q0.640625 -0.390625 1.53125 -0.390625q0.890625 0 1.40625 0.53125q0.515625 0.53125 0.515625 1.46875q0 0.640625 -0.1875 1.34375q-0.171875 0.703125 -0.578125 1.296875q-0.390625 0.59375 -1.015625 0.984375q-0.625 0.375 -1.515625 0.375zm0.171875 -0.859375q0.5 0 0.890625 -0.28125q0.390625 -0.296875 0.65625 -0.734375q0.265625 -0.453125 0.40625 -0.984375q0.140625 -0.546875 0.140625 -1.046875q0 -0.5625 -0.25 -0.890625q-0.234375 -0.34375 -0.828125 -0.34375q-0.484375 0 -0.875 0.296875q-0.390625 0.28125 -0.671875 0.734375q-0.265625 0.4375 -0.40625 0.984375q-0.140625 0.53125 -0.140625 1.03125q0 0.5625 0.234375 0.90625q0.25 0.328125 0.84375 0.328125zm8.195526 -0.421875q0 0.265625 0.046875 0.53125q0.046875 0.25 0.15625 0.546875l-0.90625 0.125q-0.125 -0.234375 -0.1875 -0.578125q-0.234375 0.21875 -0.640625 0.4375q-0.40625 0.21875 -1.0 0.21875q-0.484375 0 -0.84375 -0.140625q-0.34375 -0.15625 -0.578125 -0.421875q-0.234375 -0.28125 -0.34375 -0.65625q-0.109375 -0.390625 -0.109375 -0.828125q0 -0.75 0.25 -1.453125q0.25 -0.703125 0.734375 -1.25q0.484375 -0.546875 1.21875 -0.875q0.75 -0.34375 1.71875 -0.34375q0.125 0 0.25 0.015625q0.125 0 0.25 0.03125l0.609375 -2.578125l1.078125 -0.171875l-1.5625 6.4375q-0.046875 0.25 -0.09375 0.484375q-0.046875 0.21875 -0.046875 0.46875zm-2.328125 0.421875q0.46875 0 0.78125 -0.1875q0.328125 -0.203125 0.578125 -0.453125q0 -0.1875 0.03125 -0.390625q0.03125 -0.203125 0.078125 -0.4375l0.671875 -2.75q-0.109375 -0.03125 -0.234375 -0.03125q-0.109375 0 -0.21875 0q-0.625 0 -1.140625 0.25q-0.5 0.234375 -0.859375 0.640625q-0.359375 0.40625 -0.5625 0.9375q-0.1875 0.53125 -0.1875 1.109375q0 0.265625 0.0625 0.5q0.0625 0.21875 0.171875 0.40625q0.125 0.171875 0.328125 0.296875q0.203125 0.109375 0.5 0.109375zm4.9227753 -2.28125q0.625 -0.03125 1.15625 -0.078125q0.53125 -0.0625 0.90625 -0.203125q0.390625 -0.15625 0.609375 -0.40625q0.21875 -0.265625 0.21875 -0.671875q0 -0.09375 -0.046875 -0.203125q-0.03125 -0.109375 -0.125 -0.203125q-0.09375 -0.09375 -0.265625 -0.15625q-0.15625 -0.0625 -0.40625 -0.0625q-0.375 0 -0.71875 0.171875q-0.328125 0.15625 -0.59375 0.4375q-0.265625 0.265625 -0.453125 0.625q-0.1875 0.34375 -0.28125 0.75zm1.03125 3.140625q-0.546875 0 -0.96875 -0.15625q-0.40625 -0.15625 -0.6875 -0.4375q-0.265625 -0.28125 -0.40625 -0.65625q-0.125 -0.375 -0.125 -0.796875q0 -0.765625 0.234375 -1.484375q0.234375 -0.71875 0.65625 -1.265625q0.4375 -0.546875 1.046875 -0.875q0.625 -0.328125 1.40625 -0.328125q0.453125 0 0.765625 0.125q0.328125 0.109375 0.53125 0.3125q0.203125 0.203125 0.296875 0.46875q0.109375 0.25 0.109375 0.515625q0 0.515625 -0.1875 0.875q-0.1875 0.359375 -0.5 0.609375q-0.3125 0.234375 -0.71875 0.375q-0.40625 0.125 -0.859375 0.203125q-0.4375 0.078125 -0.90625 0.109375q-0.453125 0.015625 -0.859375 0.046875q-0.015625 0.078125 -0.015625 0.140625q0 0.046875 0 0.09375q0 0.25 0.0625 0.484375q0.0625 0.21875 0.21875 0.390625q0.171875 0.15625 0.46875 0.265625q0.296875 0.09375 0.765625 0.09375q0.203125 0 0.421875 -0.03125q0.234375 -0.046875 0.4375 -0.109375q0.203125 -0.0625 0.359375 -0.109375q0.171875 -0.0625 0.234375 -0.125l0.078125 0.875q-0.21875 0.125 -0.703125 0.25q-0.484375 0.140625 -1.15625 0.140625zm9.879364 -0.609375q-0.703125 0 -0.984375 -0.390625q-0.25 0.15625 -0.59375 0.25q-0.34375 0.09375 -0.734375 0.09375q-0.8125 0 -1.3125 -0.46875q-0.5 -0.46875 -0.5 -1.40625q0 -0.625 0.21875 -1.203125q0.21875 -0.59375 0.625 -1.03125q0.40625 -0.453125 0.984375 -0.71875q0.578125 -0.28125 1.328125 -0.28125q0.578125 0 1.0 0.109375q0.421875 0.09375 0.640625 0.1875l-0.796875 3.34375q-0.0625 0.15625 -0.0625 0.3125q0 0.125 0.0625 0.234375q0.078125 0.09375 0.3125 0.09375q0.453125 0 0.78125 -0.265625q0.328125 -0.265625 0.546875 -0.6875q0.234375 -0.4375 0.328125 -0.9375q0.109375 -0.5 0.109375 -0.984375q0 -0.59375 -0.15625 -1.09375q-0.15625 -0.515625 -0.5 -0.875q-0.34375 -0.375 -0.90625 -0.578125q-0.5625 -0.203125 -1.375 -0.203125q-0.953125 0 -1.78125 0.421875q-0.828125 0.40625 -1.4375 1.09375q-0.59375 0.6875 -0.9375 1.59375q-0.34375 0.90625 -0.34375 1.90625q0 0.734375 0.203125 1.265625q0.21875 0.515625 0.609375 0.859375q0.390625 0.34375 0.921875 0.5q0.546875 0.171875 1.1875 0.171875q0.640625 0 1.078125 -0.078125q0.4375 -0.078125 0.546875 -0.125l-0.0625 0.8125q-0.109375 0.03125 -0.296875 0.0625q-0.1875 0.046875 -0.421875 0.078125q-0.234375 0.046875 -0.515625 0.0625q-0.265625 0.03125 -0.515625 0.03125q-0.796875 0 -1.46875 -0.234375q-0.671875 -0.21875 -1.171875 -0.671875q-0.484375 -0.4375 -0.765625 -1.09375q-0.265625 -0.671875 -0.265625 -1.53125q0 -1.109375 0.359375 -2.171875q0.375 -1.078125 1.09375 -1.90625q0.71875 -0.84375 1.75 -1.359375q1.03125 -0.515625 2.375 -0.515625q1.796875 0 2.765625 0.890625q0.96875 0.890625 0.96875 2.625q0 0.515625 -0.125 1.171875q-0.109375 0.65625 -0.4375 1.25q-0.3125 0.578125 -0.875 0.984375q-0.5625 0.40625 -1.453125 0.40625zm-2.15625 -0.875q0.59375 0 1.0 -0.21875q0 -0.1875 0.015625 -0.3125q0.03125 -0.125 0.0625 -0.25l0.625 -2.578125q-0.046875 -0.03125 -0.234375 -0.046875q-0.1875 -0.03125 -0.40625 -0.03125q-0.46875 0 -0.84375 0.1875q-0.375 0.1875 -0.640625 0.515625q-0.265625 0.3125 -0.40625 0.734375q-0.140625 0.421875 -0.140625 0.875q0 0.59375 0.234375 0.859375q0.25 0.265625 0.734375 0.265625zm9.921066 0.203125q0 0.265625 0.046875 0.53125q0.046875 0.25 0.15625 0.546875l-0.90625 0.125q-0.125 -0.234375 -0.1875 -0.578125q-0.234375 0.21875 -0.640625 0.4375q-0.40625 0.21875 -1.0 0.21875q-0.484375 0 -0.84375 -0.140625q-0.34375 -0.15625 -0.578125 -0.421875q-0.234375 -0.28125 -0.34375 -0.65625q-0.109375 -0.390625 -0.109375 -0.828125q0 -0.75 0.25 -1.453125q0.25 -0.703125 0.734375 -1.25q0.484375 -0.546875 1.21875 -0.875q0.75 -0.34375 1.71875 -0.34375q0.125 0 0.25 0.015625q0.125 0 0.25 0.03125l0.609375 -2.578125l1.078125 -0.171875l-1.5625 6.4375q-0.046875 0.25 -0.09375 0.484375q-0.046875 0.21875 -0.046875 0.46875zm-2.328125 0.421875q0.46875 0 0.78125 -0.1875q0.328125 -0.203125 0.578125 -0.453125q0 -0.1875 0.03125 -0.390625q0.03125 -0.203125 0.078125 -0.4375l0.671875 -2.75q-0.109375 -0.03125 -0.234375 -0.03125q-0.109375 0 -0.21875 0q-0.625 0 -1.140625 0.25q-0.5 0.234375 -0.859375 0.640625q-0.359375 0.40625 -0.5625 0.9375q-0.1875 0.53125 -0.1875 1.109375q0 0.265625 0.0625 0.5q0.0625 0.21875 0.171875 0.40625q0.125 0.171875 0.328125 0.296875q0.203125 0.109375 0.5 0.109375z" fill-rule="nonzero"></path><path fill="#000000" fill-opacity="0.0" d="m87.091866 90.30446l52.031487 -58.536743" fill-rule="nonzero"></path><path stroke="#000000" stroke-width="2.0" stroke-linejoin="round" stroke-linecap="butt" d="m87.091866 90.30446l52.031487 -58.536743" fill-rule="nonzero"></path><path fill="#000000" fill-opacity="0.0" d="m243.18636 31.767715l104.06297 0" fill-rule="nonzero"></path><path stroke="#000000" stroke-width="2.0" stroke-linejoin="round" stroke-linecap="butt" d="m243.18636 31.767715l104.06297 0" fill-rule="nonzero"></path><path fill="#000000" fill-opacity="0.0" d="m347.24933 109.81627l52.031525 -58.536743" fill-rule="nonzero"></path><path stroke="#000000" stroke-width="2.0" stroke-linejoin="round" stroke-linecap="butt" d="m347.24933 109.81627l52.031525 -58.536743" fill-rule="nonzero"></path><path fill="#000000" fill-opacity="0.0" d="m139.12335 109.81627l104.063 0" fill-rule="nonzero"></path><path stroke="#000000" stroke-width="2.0" stroke-linejoin="round" stroke-linecap="butt" d="m139.12335 109.81627l104.063 0" fill-rule="nonzero"></path><path fill="#000000" fill-opacity="0.0" d="m123.88368 96.01934l238.60533 -50.454693" fill-rule="nonzero"></path><path stroke="#000000" stroke-width="2.0" stroke-linejoin="round" stroke-linecap="butt" d="m123.88368 96.01934l238.60533 -50.454693" fill-rule="nonzero"></path><path fill="#000000" fill-opacity="0.0" d="m227.94667 45.564648l30.479355 50.454693" fill-rule="nonzero"></path><path stroke="#000000" stroke-width="2.0" stroke-linejoin="round" stroke-linecap="butt" d="m227.94667 45.564648l30.479355 50.454693" fill-rule="nonzero"></path><path fill="#000000" fill-opacity="0.0" d="m87.091866 129.32808l0 124.25722" fill-rule="nonzero"></path><path stroke="#666666" stroke-width="1.0" stroke-linejoin="round" stroke-linecap="butt" stroke-dasharray="4.0,3.0" d="m87.091866 129.32808l0 124.25722" fill-rule="nonzero"></path><path fill="#000000" fill-opacity="0.0" d="m191.15486 51.279526l0 124.25722" fill-rule="nonzero"></path><path stroke="#666666" stroke-width="1.0" stroke-linejoin="round" stroke-linecap="butt" stroke-dasharray="4.0,3.0" d="m191.15486 51.279526l0 124.25722" fill-rule="nonzero"></path><path fill="#000000" fill-opacity="0.0" d="m295.21783 129.32808l0 124.25722" fill-rule="nonzero"></path><path stroke="#666666" stroke-width="1.0" stroke-linejoin="round" stroke-linecap="butt" stroke-dasharray="4.0,3.0" d="m295.21783 129.32808l0 124.25722" fill-rule="nonzero"></path><path fill="#000000" fill-opacity="0.0" d="m399.28085 51.279526l0 124.25722" fill-rule="nonzero"></path><path stroke="#666666" stroke-width="1.0" stroke-linejoin="round" stroke-linecap="butt" stroke-dasharray="4.0,3.0" d="m399.28085 51.279526l0 124.25722" fill-rule="nonzero"></path></g></svg>

